<svg width="109" height="86" viewBox="0 0 109 86" fill="none" xmlns="http://www.w3.org/2000/svg">
<g clip-path="url(#clip0_1803_351)" filter="url(#filter0_f_1803_351)">
<path d="M105.506 35.0221C103.787 36.2256 101.875 37.0336 100.097 36.6977C98.3904 36.3879 96.8604 34.9634 95.6665 33.8375C93.2139 31.4673 91.8593 30.0796 90.183 27.2061C88.866 24.9378 87.3606 22.6686 86.6495 20.1059C86.0198 17.9117 86.3574 15.5412 85.2705 13.4922C83.9097 10.9369 83.9821 10.5161 86.7878 9.8439C95.6058 7.68888 101.059 8.07557 109.051 12.6664C112.713 14.7861 115.156 16.516 114.328 20.8625C113.671 24.2955 111.841 28.2095 109.721 30.9605C108.685 32.2501 107.204 33.8382 105.506 35.0221Z" fill="#FFC40C"/>
<path d="M102.736 27.7121C104.409 26.2619 105.905 24.4488 106.424 23.025C107.598 19.8751 102.789 17.2023 100.422 16.4487C97.1725 15.4145 93.6676 14.4905 90.3377 13.7521C91.7764 13.3546 93.2656 13.1516 94.7739 13.1181C98.0276 13.0292 101.316 13.2512 104.44 13.9279C107.826 14.6596 112.068 15.5947 112.4 19.9027C112.622 22.9922 111.389 25.5649 110.179 28.2953C108.97 30.9854 105.67 33.0899 102.92 33.9044C102.236 34.1162 101.48 34.0845 100.675 33.9268C96.5383 33.071 94.9643 29.9908 93.3437 26.4465C92.8017 25.2328 92.4798 23.896 91.8035 22.7553C91.0819 21.5169 89.8207 19.9464 88.9439 18.3939C90.8216 19.7147 92.4112 22.1229 93.7617 23.9292C94.8769 25.4194 95.994 26.9781 97.4553 28.1471C99.4958 29.7981 100.808 29.341 102.736 27.7121Z" fill="#FFFA50"/>
<path d="M89.0713 18.5622C88.013 17.3231 86.689 15.2961 87.7569 14.1402C88.7499 13.0789 91.5362 13.3483 92.7689 13.5533C94.676 13.8683 96.5121 14.4151 98.3756 14.8497C99.8928 15.199 101.223 15.2093 102.599 16.0218C105.196 17.5504 107.329 18.9099 106.583 22.1072C105.643 26.1689 99.6922 32.1461 95.426 28.3159C93.9024 26.948 93.8152 25.263 93.01 23.5876C92.2319 21.9491 90.9855 20.5602 89.7193 19.2996C89.5487 19.1019 89.3154 18.8544 89.0713 18.5622Z" fill="#FFE62E"/>
<path d="M100.097 36.6977C98.3904 36.3879 96.8604 34.9634 95.6665 33.8375C93.2139 31.4673 91.8593 30.0796 90.183 27.2061C88.866 24.9378 87.3606 22.6686 86.6495 20.1059C86.3476 19.0474 86.2677 17.9342 86.1434 16.832C86.3143 17.4362 86.4895 18.0285 86.7546 18.5587C87.6793 20.5351 88.5928 22.6159 89.9132 24.357C89.9326 24.3776 89.9521 24.3983 89.9596 24.4146C91.921 28.0965 94.8278 31.6621 97.7885 32.415C102.775 33.6753 108.133 30.1385 110.191 25.5621C113.16 19.0005 108.893 14.5061 102.656 12.6821C97.2505 11.0929 90.0997 9.4103 84.581 11.4253C84.5128 11.4275 84.4728 11.4265 84.4165 11.4331C84.3284 10.6015 84.9993 10.2767 86.7878 9.8439C95.6058 7.68888 101.059 8.07557 109.051 12.6664C112.713 14.7861 115.156 16.516 114.328 20.8625C113.671 24.2955 111.841 28.2095 109.721 30.9605C108.709 32.2588 107.216 33.8425 105.529 35.0308C103.775 36.2213 101.875 37.0336 100.097 36.6977Z" fill="#EF9818"/>
<path d="M106.591 28.4519C105.365 29.7809 103.814 30.7472 101.998 31.4409C100.173 32.1586 98.928 31.5426 100.988 30.3278C104.329 28.333 106.07 27.1784 107.311 23.4022C107.652 22.4287 107.756 19.553 108.581 19.2845C110.221 20.7762 109.275 23.8194 108.508 25.5185C108.002 26.6487 107.364 27.6225 106.591 28.4519Z" fill="white"/>
<path d="M89.2339 16.0061C89.1792 16.2301 89.1484 16.4628 89.1632 16.6444C89.2225 17.2216 89.6532 17.8527 89.9845 18.3122C90.2889 18.7347 90.7472 19.1048 90.8077 19.6418C90.2121 19.723 89.3528 18.5293 89.0441 18.1187C88.6079 17.5398 88.1773 16.9087 87.9493 16.2023C87.7762 15.6785 87.7363 15.122 88.0351 14.6345C88.3208 14.183 88.7914 13.853 89.218 14.3471C89.5831 14.7511 89.3553 15.4135 89.2339 16.0061Z" fill="white"/>
</g>
<g clip-path="url(#clip1_1803_351)" filter="url(#filter1_f_1803_351)">
<path d="M119.771 113.779C118.48 117.17 117.312 120.499 115.865 123.834C114.747 126.423 115.171 129.234 113.917 131.729C112.296 134.95 110.567 133.986 107.013 133.374C102.743 132.647 98.539 131.71 94.2961 130.988C88.5852 130.016 82.8853 127.671 78.1624 124.295C68.8634 117.652 62.0282 108.426 57.3624 98.0212C48.6578 78.5887 48.1385 53.9383 54.447 33.6958C55.8394 29.1988 57.6044 22.6311 56.2005 17.9362C55.2146 14.6215 51.6529 10.038 57.4528 12.2896C60.8768 13.6277 62.7305 16.3629 65.352 18.6116C68.0115 20.881 71.3203 22.0873 74.5415 23.4722C77.6 24.7584 80.5198 26.3528 83.4748 27.8285C102.739 37.3343 112.326 59.4243 117.87 78.9126C121.141 90.3568 124.12 102.262 119.771 113.779Z" fill="#78AF02"/>
<path opacity="0.42" d="M98.4975 131.786C97.1039 131.507 95.6944 131.24 94.3071 131.004C88.5962 130.032 82.8963 127.687 78.1734 124.31C68.8744 117.667 62.0392 108.441 57.3734 98.0367C48.6577 78.5883 48.1384 53.9379 54.4469 33.6953C55.8393 29.1984 57.6043 22.6307 56.2005 17.9358C55.2145 14.6211 51.6528 10.0376 57.4527 12.2892C60.061 13.3 61.769 15.1483 63.5832 16.9463C65.9972 22.045 66.0304 27.6454 67.9428 33.1397C68.7314 35.3917 69.6882 37.4796 70.2802 39.8211C70.4254 40.4025 70.8954 46.9699 70.6396 46.7711C67.3673 44.1277 65.8056 40.6954 64.3165 36.8598C63.036 33.5615 61.779 27.5882 58.6056 25.6289C52.7101 31.4671 61.1303 41.4504 63.1759 46.8993C60.1601 44.2188 59.1774 39.9606 56.4045 37.0878C56.8329 39.5664 54.6627 42.3687 54.8449 45.1362C55.0442 47.9623 56.3762 50.0483 58.5497 51.8554C61.9605 54.732 65.2364 57.2789 68.9414 59.2923C72.8739 61.4299 77.8686 61.6764 80.441 65.818C76.6037 67.7788 69.8391 62.4801 66.9175 60.5106C65.245 59.3905 52.9703 49.9212 53.3237 49.3462C46.6796 60.2692 61.9278 71.3427 70.1328 74.3464C72.8694 75.3386 75.7081 76.0717 78.4751 76.9722C79.9045 77.4377 84.3719 80.0741 85.6423 79.803C76.0778 81.8852 65.648 76.3572 58.6023 70.3832C56.9624 69.0053 55.4039 67.406 53.5182 66.6224C46.649 73.9373 58.3836 80.6997 63.6731 83.1648C68.016 85.1819 72.1309 88.1574 76.7403 89.5423C80.0451 90.5397 83.7294 89.8146 87.0667 90.554C82.3918 92.1558 76.341 91.0668 71.7302 89.6123C66.2025 87.854 61.543 83.0452 55.8197 81.9873C53.1066 85.261 59.2388 93.611 61.4914 95.9043C65.8545 100.354 73.3067 102.681 79.0184 104.806C82.2466 105.998 85.901 105.67 89.2946 105.711C91.3158 105.742 96.825 107.372 98.4162 106.784C94.7758 108.114 89.9874 107.724 86.1885 107.235C83.7599 106.922 81.325 106.568 78.9448 105.986C76.8334 105.454 74.1821 103.602 72.1312 103.427C66.4946 102.968 68.3301 107.81 71.4303 109.867C78.3084 114.381 85.3908 116.989 93.3911 118.276C89.4123 117.629 85.7951 118.214 81.556 116.854C77.3328 115.483 73.9427 112.568 69.3626 111.869C67.9121 116.689 83.5663 123.81 86.7413 125.297C90.4299 127.016 94.3307 127.787 98.3586 127.929C100.472 127.99 104.543 127.043 107.16 127.389C107.891 127.493 108.495 127.685 108.903 128.036C109.312 128.388 101.122 131.397 100.17 131.518C99.614 131.598 99.0423 131.689 98.4975 131.786Z" fill="#A3CE24"/>
<path opacity="0.42" d="M78.1735 124.31C68.8745 117.667 62.0393 108.441 57.3735 98.0366C48.6578 78.5882 48.1385 53.9379 54.447 33.6953C55.8394 29.1983 57.6045 22.6306 56.2006 17.9358C55.2146 14.621 51.6529 10.0376 57.4528 12.2891C60.7361 13.5603 62.5652 16.1244 65.0191 18.3013C66.8046 21.1075 68.0769 23.9879 68.016 27.489C68.0103 27.7518 67.9998 28.0414 67.9783 28.3152C67.5673 34.2242 64.0309 31.5055 60.2759 31.6209C54.3458 31.7892 58.4595 38.8596 60.7863 41.666C62.7285 43.9868 67.5748 45.9835 68.0264 49.1049C63.0812 50.5886 59.3054 45.1893 55.7641 42.4974C51.476 49.9714 63.5893 56.6354 69.5094 58.4505C76.6217 60.6606 70.2184 62.6871 66.0194 62.5699C63.3114 62.499 61.178 61.9346 58.6918 60.8624C56.9136 60.0982 54.5277 58.3916 52.7533 58.3777C55.3846 63.349 58.6922 67.262 63.5813 70.6407C66.1079 72.4142 69.6838 74.6819 72.6492 75.8681C75.2796 76.9106 78.7767 76.7626 80.67 79.0468C78.9487 82.0548 70.435 79.995 67.8197 79.1773C61.5217 77.2248 57.4096 74.3885 52.2593 70.5325C51.4278 72.9927 53.7396 76.9625 55.1986 78.9603C57.3177 81.8404 60.9017 83.1379 63.9573 84.8261C67.5278 86.8153 71.288 88.908 75.2417 89.9249C77.644 90.5378 84.1219 89.8712 85.5547 91.6283C83.2046 94.2733 76.7271 94.3985 73.4266 94.4569C67.549 94.5651 61.372 91.9403 56.9928 88.0426C56.3097 90.1408 60.1377 94.6333 61.5189 96.2146C68.665 104.331 79.6828 105.897 90.1034 106.232C92.6562 106.316 95.9323 105.545 93.2633 108.883C91.7977 110.701 89.4024 111.283 87.0783 111.393C80.0648 111.796 73.8542 107.43 67.3526 105.76C69.9196 108.235 73.0704 111.245 76.3529 112.752C81.2934 116.848 89.3726 115.845 94.0891 119.72C89.7342 121.241 85.479 120.433 81.3429 118.578C78.6181 117.366 75.7282 113.986 72.7265 113.696C69.6599 113.38 69.5763 115.156 71.3034 117.438C74.2027 121.305 80.2923 122.179 84.2557 124.53C86.0503 125.589 87.0531 125.339 85.406 127.472C85.2438 127.679 85.0279 127.876 84.7899 128.041C82.4602 127.025 80.2278 125.777 78.1735 124.31Z" fill="#A3CE24"/>
<path d="M94.3071 131.004C88.5962 130.032 82.8964 127.687 78.1734 124.31C77.3476 123.731 76.5631 123.077 75.7848 122.465C76.7941 123.104 77.7813 123.712 78.6852 124.166C83.3782 126.552 90.7931 129.164 96.0707 127.684C97.2859 127.334 98.3517 126.734 99.252 125.897C102.326 123.007 97.7997 120.083 95.4259 119.003C91.5442 117.277 86.9225 117.195 82.8052 116.315C77.8212 115.238 70.0732 111.469 66.1172 106.454C73.0795 112.274 91.9748 120.978 98.0684 111.802C98.3548 111.368 98.4282 110.728 97.9657 110.368C93.3503 107.01 87.8387 107.476 82.4438 106.214C77.2861 105.022 63.7666 98.5349 61.9793 96.7417C69.2799 100.374 78.9125 102.927 86.334 101.722C90.7844 100.982 89.7726 95.4971 87.1035 93.2815C83.4369 90.2061 77.9059 90.7793 73.545 88.9394C68.5739 86.8648 63.7918 84.5882 59.219 81.7662C58.0043 81.034 56.9455 80.0521 55.8232 79.1144C53.7366 77.3646 51.7777 75.2907 51.5515 72.4597C53.863 76.9709 58.6023 79.2537 62.9135 81.2928C67.6245 83.5011 72.3197 85.7205 77.6958 84.6196C79.5537 84.246 85.1828 83.2047 84.4602 80.2011C83.8359 77.5761 77.1991 76.1179 74.9948 75.4851C70.1557 74.1422 66.2756 71.9447 61.9674 69.5035C58.1252 67.3266 55.5583 64.8518 53.5824 60.7897C57.8315 65.719 63.6339 68.6512 69.83 70.3216C72.7825 71.1168 79.8087 71.6456 78.7057 66.4358C77.8071 62.0956 71.4301 61.0451 68.0137 59.8194C62.8818 58.0212 58.4506 53.1008 54.9865 49.1318C57.6787 50.602 59.8568 52.9236 62.7671 54.0304C64.2895 54.5959 67.4163 55.8111 68.9371 55.4601C72.3145 54.6659 69.466 52.5985 68.0818 51.4193C64.1423 48.0866 61.4427 44.5745 58.865 40.1543C56.7641 36.5556 56.2127 32.9859 56.385 28.8662C56.3663 33.4439 59.0198 36.5173 61.5787 39.9625C63.4822 42.4984 65.7445 46.1261 69.5376 45.49C70.3818 45.3504 70.818 44.6238 71.5806 44.7055C72.9446 44.84 73.5949 46.3174 74.2785 47.3011C74.918 48.2214 75.7439 48.8003 76.4359 49.6606C78.1665 51.8461 77.019 54.5964 77.4157 57.0971C77.8703 59.8165 79.3338 62.3287 80.4539 64.8208C81.8489 67.9454 83.2122 71.0921 84.5803 74.2118C87.2661 80.3451 89.9154 86.5274 92.6282 92.6655C96.2282 100.893 99.6682 109.161 102.805 117.569C105.027 123.507 106.863 127.031 111.834 130.729C112.285 131.074 112.964 131.544 113.721 132.124C112.186 134.791 110.438 133.935 107.071 133.357C102.754 132.663 98.55 131.726 94.3071 131.004Z" fill="#6D9E02"/>
<path d="M100.367 120.933C97.6804 116.966 95.5171 112.634 93.1427 108.472C87.9218 99.3007 82.0564 89.7772 78.6572 79.7396C75.1562 69.42 71.5846 59.3376 68.8505 48.7673C66.3009 38.8688 63.925 27.6967 59.1785 18.6661C58.1767 16.7506 56.3951 14.6947 54.8759 13.1858C54.7118 13.0174 54.505 12.8553 54.2713 12.6883C54.1656 11.6559 54.8713 11.2831 57.4796 12.294C60.9036 13.6321 62.7573 16.3672 65.3788 18.6159C68.0383 20.8853 71.3471 22.0916 74.5683 23.4765C77.6268 24.7627 80.5466 26.3571 83.5016 27.8329C102.766 37.3387 112.353 59.4287 117.896 78.9169C121.151 90.3722 124.131 102.278 119.771 113.778C118.48 117.169 117.312 120.499 115.865 123.834C114.747 126.423 115.171 129.234 113.916 131.729C113.246 133.066 112.555 133.663 111.712 133.873C107.459 130.122 103.777 125.975 100.367 120.933Z" fill="#61A304"/>
<path opacity="0.6" d="M59.1517 18.6613C58.1499 16.7458 56.3682 14.6899 54.849 13.181C54.685 13.0126 54.4782 12.8505 54.2445 12.6835C54.1388 11.6511 54.8444 11.2784 57.4527 12.2892C57.701 12.3755 57.9285 12.4997 58.145 12.6081C57.9973 12.7342 57.8718 12.8921 57.8061 13.1024C57.4781 14.1539 58.9634 15.851 59.5257 16.6602C60.4471 18.0199 60.876 19.4159 61.4091 20.9277C63.3237 26.2559 64.63 31.7244 66.5556 37.0684C67.5528 39.8577 68.6322 49.6721 71.4831 51.0319C74.0686 52.2469 73.8923 48.6753 74.0203 46.4217C74.1684 43.8247 73.3307 42.0775 73.0257 39.6072C72.7118 36.9548 72.9489 34.2489 72.2661 31.6412C71.4393 28.5217 70.1896 25.9785 68.9917 23.0698C72.0537 25.6477 72.859 31.8173 73.6931 35.5906C74.8732 40.9115 75.3418 46.021 74.8613 51.3901C74.4903 55.7655 74.0348 59.3761 75.8031 63.5118C76.0952 64.2029 76.3571 65.8326 77.3027 65.6696C78.5951 65.4302 78.8019 62.816 79.2926 61.8632C80.3438 59.9563 81.4907 58.2886 82.3241 56.2037C83.7864 52.5522 84.691 48.606 85.9051 44.8682C86.9466 41.6268 87.3464 37.6314 86.7342 34.2451C88.1463 42.1342 87.7629 49.2005 84.4169 56.6081C83.3372 58.9819 82.6539 61.6214 81.4605 63.9331C80.2305 66.2937 79.0287 68.7289 79.3232 71.4888C79.6089 74.0667 80.9041 76.743 81.8629 79.2061C83.1667 82.6058 84.6269 81.8969 86.4515 79.2407C89.5852 74.71 90.849 69.3848 93.5731 64.7388C96.0584 60.494 96.3756 54.7208 97.5171 49.9982C98.4719 46.1582 98.5364 42.5605 98.094 39.0798C98.187 39.1799 98.2801 39.2799 98.3731 39.38C98.4772 39.4959 98.5813 39.6118 98.6805 39.7546C101.507 47.343 98.9715 55.6461 97.2638 63.5151C96.9793 64.3246 96.6789 65.1451 96.3785 65.9656C94.4639 70.896 92.4431 75.8768 90.9173 80.9606C89.8495 84.5026 88.0948 88.0043 90.5289 91.3715C91.4428 92.6187 92.9681 94.1704 94.5849 93.5174C95.3346 93.2081 96.1468 92.2437 96.6443 91.6392C101.3 85.9804 103.329 78.4053 106.095 71.7539C107.832 67.5826 109.41 63.2857 110.644 58.899C110.677 58.9466 110.694 59.0052 110.711 59.0638C110.722 59.0797 110.733 59.0956 110.728 59.1225C111.831 64.3323 109.867 69.4621 108.317 74.3748C107.513 76.9094 106.839 79.731 105.696 82.1489C104.656 84.3773 103.724 86.6249 102.711 88.8581C101.215 92.1565 99.6603 95.1666 98.5153 98.5976C96.9995 103.086 95.7153 110.684 100.893 113.463C104.273 115.279 108.407 109.582 110.194 107.446C114.275 102.586 116.463 95.4421 118.363 89.44C118.787 88.0865 119.184 86.7281 119.554 85.365C119.729 86.0905 119.915 86.8319 120.078 87.5416C120.487 89.281 119.441 92.0079 119.202 93.7973C118.865 96.2908 117.151 98.5643 116.172 100.915C114.246 105.524 111.813 111.333 108.373 115.017C106.877 116.622 102.304 122.434 107.098 123.103C112.016 123.78 116.943 118.308 119.521 114.164C118.298 117.414 117.148 120.636 115.764 123.857C114.645 126.446 115.069 129.257 113.815 131.752C113.144 133.089 112.454 133.687 111.611 133.896C107.875 130.586 104.6 126.957 101.544 122.728C98.7914 118.429 96.1661 114.042 93.647 109.604C93.4361 109.233 93.2253 108.862 93.0144 108.491C92.7312 107.982 92.4322 107.484 92.149 106.975C91.2161 105.294 90.2562 103.608 89.3392 101.916C85.9616 95.769 82.3076 89.4615 79.6881 82.8821C79.2769 81.8502 78.8816 80.8073 78.529 79.7583C75.0279 69.4386 71.4564 59.3562 68.7223 48.786C67.2506 43.0794 65.9405 36.8606 63.9614 30.9655C62.7256 26.648 61.1601 22.4655 59.1517 18.6613Z" fill="#468E02"/>
<path opacity="0.31" d="M109.726 118.995C108.692 116.56 113.96 109.581 115.1 107.565C119.595 99.7123 121.795 92.5841 117.927 83.8366C116.74 81.1797 115.546 79.3268 113.152 81.9083C110.154 85.1446 107.915 94.3478 106.731 98.5352C106.159 100.556 103.569 112.167 99.7873 108.113C97.7622 105.944 100.594 99.3881 101.224 97.0444C102.7 91.6186 104.386 86.4942 107.082 81.4682C108.732 78.3919 112.739 73.5604 112.793 70.0165C112.87 65.6575 105.857 57.1906 103.173 64.2316C101.239 69.2697 99.584 74.3023 97.4018 79.2541C96.6679 80.9405 92.768 91.5801 90.9137 88.5394C89.6244 86.4472 92.4251 80.2186 92.9661 77.9838C94.3674 72.2807 95.995 66.0908 98.2595 60.6819C99.6735 57.2994 102.432 51.9238 98.9665 48.732C96.3472 46.3171 94.6253 49.0196 93.3264 51.1457C90.0745 56.488 89.4852 65.9326 84.2278 69.845C80.0004 72.9711 81.5678 67.2701 82.1788 64.4927C83.0454 60.5257 84.5051 56.735 85.8082 52.8882C86.8462 49.7434 90.2183 41.1883 85.0296 39.7825C83.3505 42.4788 82.8796 52.5 78.2517 52.375C75.5167 52.2993 77.4787 46.4888 77.5077 44.9393C77.6313 40.2417 76.8824 30.0565 72.3135 27.4435C67.939 31.0012 75.2808 39.2634 71.2613 43.1627C68.2257 40.2842 67.2919 36.0626 66.0227 32.2388C64.8617 28.7399 62.8154 24.915 60.5364 21.5341C60.0886 20.5512 59.636 19.5952 59.1407 18.6454C58.1389 16.7299 56.3572 14.674 54.838 13.1651C54.674 12.9968 54.4672 12.8346 54.2335 12.6676C54.1278 11.6352 54.8334 11.2625 57.4417 12.2733C60.8657 13.6114 62.7194 16.3466 65.341 18.5952C68.0004 20.8646 71.3093 22.071 74.5305 23.4558C77.589 24.742 80.5087 26.3364 83.4637 27.8122C102.728 37.318 112.315 59.408 117.859 78.8962C120.596 88.5231 123.125 98.4595 121.271 108.218C120.563 109.298 119.402 109.964 117.372 109.751C117.671 112.179 111.387 122.875 109.726 118.995Z" fill="#A3CE24"/>
<path d="M63.8514 30.2655C63.7371 29.8979 63.6228 29.5303 63.4926 29.1737C66.1726 33.3347 67.5886 40.0446 68.9726 44.5415C70.1218 48.2605 70.0789 54.3607 72.2158 57.605C74.035 54.6702 73.9316 48.7657 73.6823 45.292C75.1071 49.4076 74.7969 53.5996 74.3487 57.8639C73.9489 61.8593 73.4778 66.3278 76.6555 69.3429C80.1436 67.6246 80.6187 61.977 82.6358 59.0223C82.136 64.4989 78.2634 71.2842 78.1231 73.4523C77.9147 76.5382 83.2638 85.6912 85.9641 87.5792C87.071 86.0571 86.8929 83.4985 87.4627 81.6438C88.0422 79.7352 89.0582 77.9468 89.4763 76.0092C89.592 80.611 88.3056 84.2109 87.6084 88.6247C86.8676 93.2806 89.2867 97.8112 91.6433 101.609C97.5321 98.1985 98.0114 89.4421 102.855 85.2053C103.294 88.7825 99.9378 93.162 98.5626 96.3294C97.1059 99.7182 95.6431 103.064 95.8785 106.924C96.0646 109.9 97.1522 114.039 100.324 115.081C103.636 116.191 108.461 112.368 110.539 110.076C108.978 113.89 102.668 116.864 103.186 121.469C103.595 125.138 106.513 126.662 110.002 126.096C113.149 125.58 114.989 123.149 116.972 120.923C116.589 121.896 116.216 122.884 115.79 123.862C114.672 126.451 115.096 129.262 113.842 131.757C113.171 133.094 112.481 133.692 111.638 133.901C109.124 131.671 106.821 129.272 104.648 126.688C99.8521 118.398 94.3755 110.416 89.408 102.15C85.2759 94.9515 81.1872 87.5107 78.5718 79.7521C75.0707 69.4325 71.4992 59.35 68.7651 48.7798C67.2996 43.116 65.8798 37.044 64.062 31.178C64.0504 30.8566 63.9533 30.5476 63.8514 30.2655Z" fill="#4A8209"/>
<path opacity="0.24" d="M55.6445 85.1208C56.312 89.4332 57.461 93.6935 59.4933 97.9045C65.3403 110.076 81.727 127.088 96.9862 123.754C96.8175 118.906 86.8725 111.841 83.8511 108.035C76.1376 98.2904 71.425 86.2951 67.7453 74.4996C64.2598 63.3222 66.7069 46.563 56.8687 38.3651C50.9527 42.3117 53.3493 52.0577 53.9397 57.6473C54.8655 67.0037 54.244 76.1649 55.6445 85.1208Z" fill="#CCEA86"/>
<path opacity="0.2" d="M100.57 51.8525C100.322 51.7662 100.133 51.6626 99.9431 51.5591C99.9003 51.5653 99.8734 51.5604 99.8307 51.5666C100.08 51.7226 100.313 51.8199 100.57 51.8525Z" fill="#CCEA86"/>
<path opacity="0.2" d="M108.735 62.1785C107.296 60.6841 105.345 60.1108 104.865 57.7617C104.563 56.2776 105.527 54.8547 104.652 53.3923C103.744 51.8823 101.454 51.2619 99.943 51.5591C98.3588 50.566 99.2438 48.6569 98.3673 47.1249C97.6845 45.9053 95.9346 45.2156 95.1187 44.0415C93.3372 41.4442 94.3701 37.4795 92.5403 35.1512C90.5574 32.6704 87.044 33.9121 84.7874 32.798C82.7742 31.7971 82.5292 29.3792 80.6526 28.2363C78.3638 26.8388 76.2796 28.5459 74.3555 27.4361C71.3475 25.7148 69.2819 23.3857 65.9606 22.0939C63.9625 21.3178 62.14 21.0314 60.2629 20.9712C59.9047 20.1849 59.5465 19.3986 59.1406 18.6454C58.1389 16.7298 56.3572 14.6739 54.838 13.165C54.674 12.9967 54.4672 12.8345 54.2335 12.6675C54.1277 11.6352 54.8334 11.2624 57.4417 12.2732C60.8657 13.6113 62.7194 16.3465 65.3409 18.5952C68.0004 20.8646 71.3093 22.0709 74.5305 23.4558C77.589 24.742 80.5087 26.3364 83.4637 27.8122C102.728 37.3179 112.315 59.4079 117.859 78.8962C118.042 79.4983 118.198 80.0956 118.365 80.7087C116.804 76.1938 114.514 71.9502 112.209 67.7873C111.169 65.8511 110.233 63.7253 108.735 62.1785Z" fill="#CCEA86"/>
<path opacity="0.25" d="M59.2659 88.9098C60.0814 91.1666 61.3066 92.9974 62.249 95.166C63.2306 97.4249 62.5963 100.101 63.9759 102.154C65.1068 103.815 67.3703 104.736 68.8572 105.962C70.9438 107.711 72.6365 109.876 74.7452 111.658C76.756 113.366 78.7447 115.043 80.9066 116.529C82.1179 117.357 84.1187 119.661 85.477 120.058C86.5982 120.385 87.2388 120.528 87.9511 119.115C89.4234 116.257 85.7907 112.993 84.0308 111.51C80.7241 108.75 76.4479 107.133 74.045 103.439C72.1175 100.496 71.3682 96.9461 70.5961 93.6004C69.5321 89.0223 68.431 84.1876 67.0788 79.6686C65.8174 75.4159 63.2204 72.4914 62.6391 67.9307C62.385 65.8721 61.7788 64.4581 61.3528 62.6601C60.8689 60.6435 60.3521 40.8383 57.135 42.4387C54.4856 43.7388 56.4821 55.2452 56.5222 57.8761C56.6291 63.684 57.6848 69.7738 57.0669 75.5207C56.5571 80.2043 57.6854 84.5025 59.2659 88.9098Z" fill="#CCEA86"/>
</g>
<g clip-path="url(#clip2_1803_351)">
<path d="M18.4655 92.6068C17.3342 94.383 15.4528 95.0957 13.4247 95.464C11.0909 95.8847 9.60436 95.0444 8.42383 92.9494C6.72103 89.8763 6.04312 85.7805 5.29573 82.3539C4.73071 79.7677 4.29881 76.7083 4.32005 74.094C4.33113 73.0976 3.97765 71.7245 4.47348 70.8024C6.01916 67.8947 14.3165 76.6973 15.4164 77.9003C19.1005 81.9409 21.7248 87.4965 18.4655 92.6068Z" fill="#757575"/>
<path d="M18.4655 92.6067C19.7155 90.6398 20.0924 88.6043 19.8792 86.6166C19.4992 88.407 18.7853 89.2458 17.4727 90.3854C15.2458 92.2941 12.2009 89.9372 10.9862 87.6521C6.61572 79.402 5.23684 72.1638 5.32004 70.2238C4.94563 70.2628 4.6562 70.4407 4.46371 70.8004C3.97769 71.7245 4.32136 73.0957 4.31028 74.092C4.28904 76.7064 4.71902 79.7756 5.28596 82.3519C6.04316 85.7805 6.71126 89.8743 8.41406 92.9474C9.59459 95.0424 11.0811 95.8828 13.415 95.4621C15.451 95.1055 17.3343 94.3829 18.4655 92.6067Z" fill="#575959"/>
<path d="M19.3592 90.7944C16.0232 89.5116 14.1193 86.2158 12.6708 82.9885C12.3675 82.2976 12.0427 81.6127 11.7277 80.9297C11.9855 81.5404 12.2433 82.1511 12.5128 82.7539C13.7395 85.4998 15.3837 91.1698 18.837 91.9559C19.0451 91.5686 19.212 91.1834 19.3592 90.7944Z" fill="#D1D1D1"/>
<path d="M10.4653 83.5871C9.61318 81.6887 7.11229 74.4046 6.62547 73.036C6.53212 72.7835 6.45649 72.5445 6.38278 72.2958C6.74817 74.5475 8.73848 81.2632 9.79545 83.7824C11.5937 87.9847 14.2238 91.84 16.8218 94.2422C17.2168 93.9932 17.5723 93.6856 17.8981 93.3213C14.1959 91.3047 11.9871 86.9611 10.4653 83.5871Z" fill="#D1D1D1"/>
<path d="M5.42788 78.7016C5.90911 81.4038 6.39633 84.1276 7.35945 86.7099C8.65814 90.1831 10.5683 93.1336 13.1229 95.4968C13.2268 95.4865 13.3208 95.4743 13.4149 95.4621C14.3967 95.287 15.3545 95.0256 16.2017 94.6C15.5498 94.4422 14.9365 94.1391 14.4339 93.5825C12.3817 91.3072 10.8113 88.4433 9.59421 85.6484C8.14326 82.3289 6.73254 78.8034 5.80826 75.2913C5.35114 73.5617 5.43168 71.8962 5.53569 70.215C5.3121 70.2121 5.12202 70.2464 4.942 70.3335C4.51355 73.1027 4.9524 75.9699 5.42788 78.7016Z" fill="#959C9C"/>
<path d="M5.39863 75.7716C5.72494 82.7127 9.17093 89.9571 13.7539 95.3958C14.1673 95.3135 14.5532 95.2156 14.9312 95.106C11.8584 92.2137 9.36922 88.7324 7.80939 84.7702C6.71198 81.9884 5.69456 78.6924 5.36969 75.4501C5.36203 75.4894 5.36609 75.5208 5.36035 75.5502C5.3862 75.6266 5.40414 75.6912 5.39863 75.7716Z" fill="#D1D1D1"/>
<path opacity="0.41" d="M7.03267 72.4634C6.56374 71.9949 5.93111 70.9035 7.12132 71.2785C7.88926 71.5201 8.49846 72.2095 9.12036 72.6774C11.4662 74.4394 13.2902 76.5785 15.2085 78.7563C17.2451 81.0591 20.074 84.6271 18.9987 87.8916C18.5789 89.1546 17.7798 89.3858 16.8494 88.3585C15.5819 86.97 14.7983 85.034 13.9043 83.4025C12.2843 80.427 10.9049 77.3151 8.84876 74.5908C8.28242 73.8383 7.67897 73.1194 7.03267 72.4634Z" fill="#A5AAAA"/>
<path d="M11.2045 75.9371C12.088 76.9959 13.0811 78.0151 13.7789 79.1905C14.5853 80.54 15.6167 81.7806 16.4897 83.1023C16.8511 83.6517 17.1989 84.2188 17.5603 84.7683C17.7341 85.0263 18.1513 85.7598 18.3819 85.1528C18.5136 84.7913 17.9195 83.9723 17.7711 83.6886C17.4051 83.0059 17.0803 82.321 16.6753 81.6815C15.9977 80.6119 15.1634 79.6136 14.3939 78.5973C13.3718 77.2567 12.3561 76.0396 11.1193 74.9118C10.7746 74.5898 9.96746 73.505 9.4894 73.6053C9.58869 74.2971 10.5416 75.1047 10.9677 75.6361C11.0407 75.7319 11.1235 75.8296 11.2045 75.9371Z" fill="#A5AAAA"/>
</g>
<defs>
<filter id="filter0_f_1803_351" x="72" y="-2" width="50.7762" height="47.5614" filterUnits="userSpaceOnUse" color-interpolation-filters="sRGB">
<feFlood flood-opacity="0" result="BackgroundImageFix"/>
<feBlend mode="normal" in="SourceGraphic" in2="BackgroundImageFix" result="shape"/>
<feGaussianBlur stdDeviation="3" result="effect1_foregroundBlur_1803_351"/>
</filter>
<filter id="filter1_f_1803_351" x="11" y="-3.99988" width="140.474" height="156.553" filterUnits="userSpaceOnUse" color-interpolation-filters="sRGB">
<feFlood flood-opacity="0" result="BackgroundImageFix"/>
<feBlend mode="normal" in="SourceGraphic" in2="BackgroundImageFix" result="shape"/>
<feGaussianBlur stdDeviation="2" result="effect1_foregroundBlur_1803_351"/>
</filter>
<clipPath id="clip0_1803_351">
<rect width="31.6874" height="26.3065" fill="white" transform="translate(107.775 39.5614) rotate(-159.99)"/>
</clipPath>
<clipPath id="clip1_1803_351">
<rect width="133.047" height="68.8615" fill="white" transform="translate(90.9266 148.553) rotate(-124.797)"/>
</clipPath>
<clipPath id="clip2_1803_351">
<rect width="23.69" height="18.67" fill="white" transform="translate(22.8625 73.5767) rotate(101.045)"/>
</clipPath>
</defs>
</svg>
