<svg width="97" height="90" viewBox="0 0 97 90" fill="none" xmlns="http://www.w3.org/2000/svg">
<g clip-path="url(#clip0_1803_348)">
<path d="M73.42 65.82C76.34 63.42 80.27 62.71 84.01 62.19C85.29 62.01 86.61 61.85 87.86 62.19C89.85 62.72 91.54 64.48 93.6 64.32C94.17 64.28 94.77 64.08 95.3 64.29C95.99 64.56 96.28 65.43 96.14 66.16C96 66.89 95.54 67.51 95.09 68.1C89.74 75.08 83.82 82.46 75.37 84.89C73.18 85.52 70.59 85.77 68.47 84.76C65.75 83.47 65.73 81.38 66.31 78.73C67.35 73.87 69.5 69.05 73.42 65.82Z" fill="#D5D458"/>
<path opacity="0.62" d="M68.82 84.91C71.59 84.53 74.12 83.22 76.49 81.81C78.44 80.65 80.53 79.45 82.31 78.05C83.51 77.11 84.21 75.69 84.88 74.32C85.34 73.38 85.8 72.44 86.26 71.49C86.52 70.96 86.78 70.42 86.85 69.83C85.65 70.27 84.45 70.71 83.26 71.15C84.22 70.8 85.36 69.35 86.14 68.67C86.54 68.33 87.98 67.48 87.48 66.74C87.28 66.44 86.89 66.34 86.53 66.29C85.4 66.12 84.22 66.24 83.14 66.63C83.89 65.76 85.07 65.4 86.2 65.2C86.5 65.15 86.83 65.09 87.04 64.86C86.71 64.56 86.22 64.51 85.77 64.49C83.34 64.38 80.89 64.64 78.54 65.25C79.34 64.85 80.14 64.46 80.99 64.19C81.54 64.02 82.11 63.9 82.67 63.78C83.88 63.53 85.09 63.28 86.31 63.03C85.36 62.47 83.76 62.49 82.71 62.68C81.9 62.83 81 62.66 80.21 62.83C81.46 62.56 82.74 62.36 84 62.19C85.28 62.01 86.6 61.85 87.85 62.19C89.84 62.72 91.53 64.48 93.59 64.32C94.16 64.28 94.76 64.08 95.29 64.29C95.98 64.56 96.27 65.43 96.13 66.16C96 66.89 95.54 67.51 95.09 68.1C89.74 75.08 83.82 82.46 75.37 84.89C73.3 85.48 70.87 85.73 68.82 84.91Z" fill="#BFB939"/>
<path opacity="0.62" d="M92.05 68.3601C91.13 66.8201 91.65 65.5301 91.99 64.0801C92.51 64.2601 93.04 64.3601 93.6 64.3201C94.17 64.2801 94.77 64.0801 95.3 64.2901C95.99 64.5601 96.28 65.4301 96.14 66.1601C96 66.8901 95.54 67.5101 95.09 68.1001C94.59 68.7601 94.07 69.4201 93.56 70.0801C93.01 69.5501 92.45 69.0401 92.05 68.3601Z" fill="#FFEC9C"/>
<path opacity="0.68" d="M91.98 68.6101C92 68.5001 92.01 68.3901 92.01 68.2701C93.06 68.7201 94.19 67.8901 94.44 66.8301C94.61 66.1201 94.85 65.3901 94.47 64.7601C94.49 64.6201 94.17 64.3901 94.14 64.2501C94.54 64.1901 94.94 64.1501 95.31 64.2901C96 64.5601 96.29 65.4301 96.15 66.1601C96 66.8901 95.54 67.5101 95.09 68.1001C94.52 68.8401 93.95 69.5901 93.36 70.3301C92.55 69.9101 91.84 69.3201 91.98 68.6101Z" fill="#E8B769"/>
<path opacity="0.44" d="M74.76 67.7601C76.47 66.5801 78.37 65.6501 80.39 65.1801C82.95 64.5801 85.72 64.7401 88.09 65.8801C89.39 66.5001 90.63 67.5601 90.83 68.9801C91.18 71.5401 89.61 73.2401 88.17 75.0501C86.43 77.2501 84.17 79.0101 81.71 80.3601C78.58 82.0701 75.13 83.1301 71.65 83.9301C70.34 84.2301 68.72 84.4001 67.88 83.3401C67.3 82.6101 67.35 81.5701 67.49 80.6501C68.23 75.6801 70.58 70.6501 74.76 67.7601Z" fill="#E5DF6E"/>
<path opacity="0.65" d="M93.37 70.0701C93.4 70.0301 93.42 70.0001 93.45 69.9701C94.06 69.1101 94.96 67.5301 95.17 66.4901C95.4 65.3601 95.23 64.5301 94.34 64.2301C94.67 64.1901 95 64.1701 95.3 64.2901C95.99 64.5601 96.28 65.4301 96.14 66.1601C96 66.8901 95.54 67.5101 95.09 68.1001C94.55 68.8001 94 69.5101 93.45 70.2101C93.42 70.1601 93.4 70.1101 93.37 70.0701Z" fill="#A57329"/>
<path d="M71.87 81.8701C71.71 81.9401 71.55 82.0101 71.39 82.0901C70.62 82.4501 69.44 83.0501 68.58 82.7301C67.57 82.3501 67.96 80.0901 68.14 79.1801C68.67 76.4101 70.45 74.3001 72.24 72.5301C73.17 71.6001 74.33 70.9001 75.61 70.8201C76.14 70.7901 76.68 70.8601 77.21 70.8001C78.32 70.6801 79.3 69.9001 80.42 69.8701C81.1 69.8501 82.06 69.9501 82.72 70.1401C83.27 70.3001 83.81 70.7301 83.98 71.3401C84.16 71.9701 83.92 72.6201 83.66 73.1701C81.92 76.8501 78.83 79.5901 75.24 80.6401C74.04 80.9901 72.98 81.3701 71.87 81.8701Z" fill="#E5DF6E"/>
<path opacity="0.77" d="M68.46 84.76C67.7 84.4 67.15 83.97 66.77 83.49C67.24 84.08 69.28 83.7 69.9 83.64C71.34 83.49 72.75 83.16 74.12 82.71C79.07 81.09 85.01 78.38 87.18 73.3C86.75 73.53 86.32 73.76 85.89 73.99C86.78 72.47 87.82 71.03 89.01 69.73C89.18 69.55 89.33 69.22 89.12 69.09C89.06 69.05 88.98 69.05 88.91 69.02C88.66 68.91 88.71 68.55 88.67 68.28C88.44 66.78 81.97 68.31 81.09 68.96C82.42 67.97 83.97 67.29 85.6 66.98C86.5 66.81 87.41 66.75 88.3 66.55C88.43 66.52 88.57 66.48 88.66 66.39C88.83 66.2 88.73 65.87 88.53 65.72C88.37 65.61 86.92 65.19 86.8 65.27C87.32 64.94 87.88 64.68 88.46 64.5C88.04 64.45 87.65 64.28 87.33 64C88.07 63.96 88.81 63.82 89.52 63.61C88.57 63.03 87.5 62.65 86.39 62.49C85.91 62.42 85.41 62.51 84.95 62.45C84.65 62.41 84.32 62.17 84.01 62.21C85.29 62.03 86.61 61.87 87.86 62.21C89.44 62.63 90.83 63.82 92.37 64.22C91.88 64.91 91.62 65.79 91.6 66.62C91.57 68.01 92.54 69.57 94.05 69.45C88.97 76.01 83.27 82.63 75.36 84.9C73.18 85.52 70.59 85.76 68.46 84.76Z" fill="#B9BC37"/>
<path opacity="0.68" d="M68.46 84.76C68.15 84.61 67.89 84.45 67.65 84.29C73.46 86.43 79.69 83.01 84.15 79.27C85.48 78.16 86.77 76.98 87.95 75.71C89.51 74.03 90.55 72.14 91.77 70.23C90.29 70.15 88.96 71.09 87.78 71.98C88.43 71.01 89.56 70.49 90.38 69.67C90.58 69.47 90.78 69.17 90.66 68.91C90.47 68.5 89.72 68.61 89.6 68.18C89.86 67.96 90.12 67.74 90.38 67.52C90.25 67.37 90.07 67.27 89.88 67.25C90.07 66.7 90.93 66.52 90.95 65.94C90.96 65.56 90.59 65.29 90.23 65.17C89.87 65.05 89.47 64.98 89.22 64.71C89.85 64.6 90.49 64.59 91.12 64.7C90.8 64.65 90.27 63.27 89.84 63.04C90.69 63.49 91.52 63.98 92.39 64.2C91.9 64.89 91.64 65.77 91.62 66.6C91.59 67.99 92.56 69.55 94.07 69.43C88.99 75.99 83.29 82.61 75.38 84.88C73.18 85.52 70.59 85.76 68.46 84.76Z" fill="#A29720"/>
<path opacity="0.75" d="M68.46 84.7601C68.15 84.6101 67.89 84.4501 67.65 84.2901C73.46 86.4301 79.69 83.0101 84.15 79.2701C86.63 77.1901 88.77 75.3801 90.41 72.5501C90.95 71.6301 91.48 70.7101 92.02 69.7901C92.06 69.7201 92.11 69.6401 92.12 69.5501C92.15 69.3401 91.94 69.1501 91.73 69.1101C91.52 69.0701 91.3 69.1401 91.1 69.2101C91.32 69.0601 91.55 68.9001 91.68 68.6701C91.81 68.4401 91.81 68.1101 91.6 67.9401C91.44 67.8101 91.22 67.8101 91.02 67.8101C90.33 67.8201 89.64 67.8201 88.95 67.8301C89.75 67.5001 90.55 67.1701 91.35 66.8401C91.11 66.6101 91.15 66.2201 91.15 65.8901C91.15 65.5501 91 65.1301 90.67 65.1201C90.97 65.0101 91.26 64.9001 91.56 64.7901C91.42 64.4601 91.27 64.1601 91.24 63.8101C91.34 63.8501 92.31 64.2901 92.36 64.2101C91.87 64.9001 91.61 65.7801 91.59 66.6101C91.56 68.0001 92.53 69.5601 94.04 69.4401C88.96 76.0001 83.26 82.6201 75.35 84.8901C73.18 85.5201 70.59 85.7601 68.46 84.7601Z" fill="#8A720B"/>
<path opacity="0.42" d="M93.95 65.71C94.09 65.71 94.23 65.71 94.35 65.77C94.47 65.82 94.58 65.95 94.57 66.08C94.57 66.16 94.53 66.23 94.49 66.29C94.16 66.84 93.76 67.35 93.3 67.79C93.06 68.02 92.73 68.24 92.43 68.11C92.19 68.01 92.09 67.72 92.05 67.46C92 67.2 92 66.92 92 66.65C92 66.11 92 65.31 92.5 64.94C93.17 64.45 93.98 64.9 93.95 65.71Z" fill="#FFF69E"/>
<path d="M93.35 65.26C93.46 65.24 93.62 65.25 93.64 65.36C93.66 65.44 93.58 65.52 93.59 65.6C93.6 65.72 93.78 65.78 93.79 65.9C93.8 65.96 93.75 66.02 93.71 66.07C93.42 66.42 93.11 66.75 92.78 67.07C92.62 67.23 92.38 67.38 92.2 67.25C92.12 67.19 92.08 67.08 92.06 66.97C91.89 65.98 92.41 65.42 93.35 65.26Z" fill="#FBEF95"/>
<path opacity="0.34" d="M70.28 72.7301C71.28 71.3101 72.55 70.0501 74.13 69.3201C72.28 71.0501 70.69 73.0501 69.38 75.2101C69.21 75.5001 69.04 75.7801 68.88 76.0701C68.74 76.3301 68.52 76.5401 68.39 76.7901C67.97 77.6201 67.64 78.4901 67.4 79.3901C67.35 79.5801 67.3 79.7701 67.19 79.9201C67.28 79.7901 67.22 79.2401 67.25 79.0601C67.3 78.7301 67.38 78.4001 67.48 78.0801C67.68 77.4901 68.05 77.0001 68.28 76.4401C68.81 75.1501 69.47 73.8901 70.28 72.7301Z" fill="#BFB939"/>
<path opacity="0.34" d="M74.25 66.35C75.56 65.22 77.11 64.31 78.81 63.98C76.6 65.21 74.57 66.75 72.77 68.53C72.53 68.77 72.3 69 72.07 69.25C71.87 69.46 71.6 69.61 71.42 69.82C70.81 70.52 70.28 71.29 69.82 72.1C69.73 72.27 69.63 72.44 69.49 72.56C69.61 72.46 69.69 71.91 69.75 71.74C69.88 71.43 70.03 71.13 70.21 70.85C70.55 70.33 71.03 69.95 71.39 69.45C72.24 68.33 73.18 67.27 74.25 66.35Z" fill="#BFB939"/>
<path opacity="0.34" d="M69.17 77.34C69.97 76.32 70.98 75.42 72.19 74.92C70.74 76.15 69.46 77.58 68.4 79.15C68.27 79.35 68.13 79.56 68 79.77C67.88 79.96 67.71 80.11 67.61 80.29C67.27 80.89 66.99 81.53 66.78 82.18C66.74 82.32 66.69 82.45 66.6 82.57C66.67 82.48 66.64 82.07 66.67 81.94C66.72 81.7 66.79 81.46 66.88 81.23C67.05 80.8 67.35 80.45 67.54 80.04C67.98 79.08 68.52 78.17 69.17 77.34Z" fill="#BFB939"/>
<path opacity="0.34" d="M82.91 76.35C82 77.4 80.88 78.31 79.56 78.77C81.18 77.53 82.62 76.06 83.84 74.44C84 74.23 84.16 74.01 84.31 73.79C84.44 73.59 84.64 73.44 84.76 73.26C85.16 72.63 85.49 71.96 85.76 71.27C85.81 71.13 85.87 70.98 85.97 70.86C85.88 70.96 85.89 71.4 85.86 71.54C85.8 71.8 85.71 72.05 85.6 72.3C85.4 72.76 85.06 73.11 84.83 73.55C84.28 74.54 83.65 75.49 82.91 76.35Z" fill="#BFB939"/>
</g>
<g clip-path="url(#clip1_1803_348)">
<path d="M34.9164 61.0361C34.8143 61.4253 34.6462 61.8578 34.4123 62.3338C32.496 66.3605 34.8131 68.5742 35.5737 72.7409C36.7471 79.4476 35.5797 85.1492 32.8125 91.2511C28.8728 99.9148 21.9721 108.824 12.5884 111.88C2.63188 115.115 -4.33492 104.432 -4.82358 96.1852C-5.44645 86.7206 -1.82241 77.3654 4.56536 70.441C7.79545 66.9692 11.6398 64.0964 15.9548 62.1065C20.0438 60.1897 24.8353 60.7358 28.7971 58.8271C32.0737 57.2561 35.9766 57.2892 34.9164 61.0361Z" fill="#FCE1A7"/>
<path d="M25.5168 96.1035C22.9445 99.5681 19.3361 103.412 15.5948 105.611C13.7648 106.693 12.3178 107.997 10.2129 108.635C7.9632 109.312 4.96512 109.516 2.88851 108.195C0.102985 106.403 -2.50712 102.574 -2.09267 99.1676C-0.936525 104.418 5.38653 105.991 9.9876 104.39C12.5428 103.503 14.837 101.935 16.8666 100.153C19.7319 97.6318 22.5246 94.4575 24.3773 91.107C26.3623 87.5274 27.2985 82.7923 28.0482 78.8049C28.8024 74.7388 28.774 70.6486 29.252 66.5655C29.3963 65.3249 29.8629 64.1276 30.3972 62.9899C30.9579 61.8063 31.8427 59.4247 32.987 58.8225C33.1226 58.9415 33.1068 59.075 33.0734 59.239C32.8288 60.2996 32.0712 61.3288 31.6775 62.3644C30.5518 65.3402 30.9623 67.9196 31.3515 70.996C31.4991 72.1201 31.638 73.2594 31.6826 74.3851C31.8322 78.3009 30.9382 82.1845 30.0577 85.974C29.2616 89.405 27.7344 93.147 25.5168 96.1035Z" fill="#F2CF91"/>
<path d="M0.39693 108.406C1.54596 109.07 2.87697 109.736 5.02689 110.081C8.4261 110.598 10.0045 110.022 13.2412 108.591C20.5093 105.413 26.2777 98.7834 29.563 91.8195C31.5168 87.6923 32.227 83.0304 32.5114 78.4689C32.9624 71.2131 31.0942 68.5049 31.9376 64.0014C32.2254 62.4769 34.3621 58.7405 32.5604 57.8632C34.3431 57.8536 35.5571 58.7582 34.9072 61.0514C34.8051 61.4406 34.6371 61.8731 34.4031 62.3491C32.4869 66.3758 34.804 68.5895 35.5645 72.7562C36.7379 79.4629 35.5705 85.1645 32.8034 91.2664C28.8636 99.9301 21.9629 108.84 12.5793 111.896C7.63838 113.483 3.44526 111.653 0.39693 108.406Z" fill="#F2CF91"/>
<path opacity="0.34" d="M27.7864 66.8397C27.2066 68.4808 26.8348 70.2216 26.5085 72.1312C25.0766 80.3077 22.68 88.4568 18.0378 95.3297C15.2705 99.4151 4.55609 108.526 0.562877 101.149C-1.57974 97.1825 -0.91653 91.4342 0.107915 87.2186C1.78824 80.204 6.22895 72.5832 12.1433 68.3186C13.8224 67.1086 15.7351 66.2371 17.6389 65.3808C21.1457 63.8001 24.9939 64.4941 28.1158 61.9172C28.9315 61.2475 32.4082 59.5068 30.5522 61.8369C29.2533 63.4498 28.4038 65.0981 27.7864 66.8397Z" fill="#FFF5CA"/>
<path opacity="0.72" d="M1.44619 109.42C3.45316 110.578 5.4304 111.435 8.04688 111.255C14.758 110.811 21.0808 105.662 25.2194 100.617C30.331 94.3813 32.5057 88.3855 33.4948 81.5422C34.0086 77.9279 33.502 73.2153 32.6514 69.7706C31.5129 65.1617 33.7347 63.6132 33.9421 59.1498C33.9523 58.7076 33.8329 58.3128 33.6147 57.9831C34.7758 58.3072 35.4021 59.2391 34.9008 61.0273C34.7987 61.4165 34.6306 61.8491 34.3967 62.3251C32.4804 66.3518 34.7975 68.5654 35.5581 72.7321C36.7315 79.4388 35.5641 85.1404 32.7969 91.2424C28.8572 99.906 21.9565 108.816 12.5728 111.872C8.18715 113.311 4.38262 112.011 1.44619 109.42Z" fill="#ECBB70"/>
<path d="M31.8803 73.5826C31.9217 74.3602 31.9389 75.1441 31.9166 75.9257C31.8786 76.8407 31.7463 77.7421 31.5987 78.6346C30.9364 82.7538 30.32 87.5717 28.4594 91.325C26.4731 95.3316 23.8628 99.039 20.6099 102.09C19.1847 103.427 13.8484 108.636 7.23526 109.299C5.45861 109.475 3.11462 108.794 1.13781 107.123C-0.86082 105.419 -2.04473 102.658 -2.58241 100.087C-4.25582 92.0524 -3.14007 83.3267 1.41254 76.3613C4.06788 72.2928 7.7701 68.6047 11.8438 66.0069C15.0781 63.943 18.2623 62.4612 22.0914 62.2683C23.8787 62.18 25.5003 61.1404 27.0754 60.2165C28.4528 59.423 29.9314 58.5249 31.5706 58.7991C29.4672 59.0105 27.7606 60.551 25.9218 61.6485C21.6026 64.2471 18.6889 62.0761 11.8429 66.9637C7.53524 70.0375 4.28707 74.3544 1.7701 79.0324C0.6142 81.176 -0.498055 83.3855 -1.13492 85.7269C-2.43789 90.6373 -2.12574 95.8283 -0.628393 100.665C-0.2551 101.858 0.199434 103.017 0.941793 103.995C2.20831 105.623 4.24683 106.515 6.29415 106.719C7.95569 106.884 9.71934 106.659 11.3173 106.156C25.1339 101.932 31.9847 85.3959 30.4889 71.9238C30.2312 69.5751 29.7413 67.1332 30.4065 64.8489C31.0095 62.8138 32.482 61.0771 32.9142 58.9841C32.8102 60.6147 31.9714 61.6785 31.5128 63.1451C31.1915 64.1614 31.2552 65.5018 31.2715 66.5704C31.3077 68.9134 31.7321 71.2565 31.8803 73.5826Z" fill="#ECBB70"/>
<path d="M-1.98732 97.1101C-2.56773 94.1881 -2.57156 90.6213 -2.01178 87.7058C-0.992478 82.3668 1.19395 77.5184 4.55586 73.2875C7.15598 70.0223 12.2096 65.4441 16.8873 63.8876C19.5367 63.0137 21.9424 62.9157 24.6136 62.0747C25.316 61.8488 26.3749 61.2176 27.0731 60.9282C26.7018 61.1823 26.3392 61.4211 25.9613 61.651C21.6421 64.2496 18.7284 62.0785 11.8824 66.9662C7.57473 70.04 4.32656 74.3569 1.80959 79.0349C0.653692 81.1785 -0.458563 83.388 -1.09543 85.7294C-2.43786 90.6374 -2.12571 95.8284 -0.628361 100.665C-0.441715 101.262 -0.228608 101.812 0.0239598 102.366C-0.148745 102.205 -1.47564 99.585 -1.98732 97.1101Z" fill="#C59C5F"/>
<path d="M3.37415 108.557C6.44003 109.084 9.65166 108.617 12.8266 107.292C15.5229 106.16 22.3661 100.782 27.6327 92.0495C30.4147 87.4431 31.5592 76.6156 31.4974 74.706C31.761 72.5157 29.4651 66.4441 31.7537 61.8787C32.1376 61.143 32.4973 60.4138 32.7411 59.6378C32.7852 59.5615 32.8293 59.4851 32.8734 59.4087C32.665 60.7957 31.9556 61.812 31.5216 63.1299C31.2004 64.1462 31.264 65.4866 31.2803 66.5552C31.3078 68.9135 31.7322 71.2565 31.8803 73.5827C31.9217 74.3602 31.9389 75.1442 31.9166 75.9257C31.8786 76.8407 31.7463 77.7421 31.5987 78.6346C30.9364 82.7538 30.32 87.5717 28.4595 91.325C26.4731 95.3316 23.8628 99.0391 20.6099 102.09C19.1847 103.427 13.8484 108.636 7.23529 109.299C6.08815 109.411 4.7163 109.169 3.37415 108.557Z" fill="#C59C5F"/>
<path opacity="0.51" d="M3.46783 78.8516C5.90774 74.2717 9.36112 70.2362 13.4422 68.0501C15.5508 66.9454 18.9713 64.9482 21.4392 65.2731C24.227 65.6809 24.3529 68.7886 22.8428 70.6258C20.7626 73.132 17.6299 74.9491 15.4207 77.3604C13.0972 79.828 11.0755 82.5513 9.50694 85.5158C9.05479 86.3344 8.63329 87.1706 8.27306 88.0422C7.28801 90.2436 6.48494 92.4484 5.79562 94.7391C5.33513 96.1028 4.88398 98.6533 3.2141 99.0335C-0.788118 99.8801 -0.17135 93.5754 -0.0210159 91.1568C0.132052 87.2121 1.39604 82.8292 3.46783 78.8516Z" fill="#FFF5CA"/>
<path opacity="0.66" d="M9.1298 79.4113C7.06635 82.8438 5.40123 86.5062 3.87632 90.2089C3.47617 91.2204 2.77249 94.5621 1.13787 94.209C-0.332398 93.8898 0.170282 91.0024 0.333662 89.9764C1.4244 82.8862 5.69384 76.6943 10.3644 71.2228C11.1216 70.3359 17.4486 65.9226 17.0704 69.6559C16.9483 70.7872 13.6889 73.1422 12.9053 74.0749C11.4987 75.7682 10.2606 77.5588 9.1298 79.4113Z" fill="#FFFAE6"/>
<path opacity="0.51" d="M26.1677 96.8866C26.0906 96.9847 26.0047 97.098 25.8905 97.1543C25.7763 97.2106 25.6032 97.1921 25.5465 97.0779C25.4899 96.9638 25.5363 96.848 25.5827 96.7322C26.2674 95.1924 27.2432 93.8207 28.0045 92.3252C28.9269 90.5153 29.5011 88.5654 30.0271 86.6285C30.2912 85.6403 30.5465 84.6674 30.8259 83.688C30.9457 83.2683 31.2813 81.2011 31.9229 81.4697C32.4177 81.6739 32.0325 82.8366 31.9786 83.2129C31.8287 84.1448 31.6393 85.0743 31.4105 86.0014C30.9287 87.8619 30.2825 89.6887 29.4831 91.4271C28.5384 93.3464 27.4406 95.1772 26.1677 96.8866Z" fill="#FFFAE6"/>
<path opacity="0.51" d="M15.8167 63.3713C14.5345 63.8939 13.3938 64.7019 12.2249 65.4529C7.72276 68.3329 4.3311 71.5892 1.48544 76.1996C1.29372 76.4963 0.985935 76.7464 0.732931 77.0077C0.664689 77.0905 0.548168 77.1862 0.447426 77.1484C0.300722 77.0841 0.354102 76.8501 0.448804 76.7214C2.04897 74.1621 3.74291 71.7589 5.89647 69.6209C7.91586 67.6092 10.2709 65.5469 12.775 64.1817C14.4866 63.0922 16.4759 62.2649 18.4206 61.6563C20.317 61.0605 22.4748 61.0027 24.4339 60.6876C24.6335 60.6603 24.8178 60.6241 25.0128 60.6756C25.0277 60.8267 24.9023 60.9377 24.7705 61.0245C23.5398 61.8824 21.7172 62.0319 20.2627 62.2514C18.7623 62.4443 17.2284 62.8012 15.8167 63.3713Z" fill="#FFFAE6"/>
</g>
<path d="M59.7203 38.8522C59.685 40.3986 59.6901 41.9031 59.5839 43.4493C59.5035 44.649 60.0746 45.7181 59.9262 46.8995C59.7339 48.4245 58.9021 48.2837 57.3865 48.5444C55.5673 48.8608 53.7444 49.0835 51.9367 49.398C49.5033 49.8213 46.8788 49.6915 44.4998 49.0079C39.8165 47.6637 35.755 44.9306 32.3974 41.4149C26.1301 34.8471 22.4082 25.016 22.0582 15.983C21.9767 13.9776 21.75 11.0869 20.5167 9.40053C19.6481 8.20911 17.5637 6.87499 20.2152 6.95311C21.7817 7.0028 22.9164 7.83767 24.2903 8.36762C25.6823 8.90049 27.1838 8.91363 28.6756 9.01102C30.0878 9.09195 31.4883 9.31648 32.886 9.48835C41.9817 10.5624 48.9822 18.0723 53.9872 25.1131C56.9325 29.2455 59.8266 33.6047 59.7203 38.8522Z" fill="#78AF02"/>
<path opacity="0.42" d="M53.7388 49.1198C53.1391 49.2065 52.5346 49.2999 51.9435 49.4028C49.5102 49.8261 46.8857 49.6963 44.5067 49.0127C39.8233 47.6685 35.7619 44.9354 32.4043 41.4197C26.1303 34.8471 22.4084 25.016 22.0584 15.983C21.9769 13.9776 21.7502 11.0869 20.5169 9.40053C19.6483 8.20912 17.5639 6.87499 20.2154 6.95312C21.4075 6.98755 22.3572 7.48681 23.3425 7.95072C25.0391 9.65547 25.8506 11.9011 27.4021 13.8363C28.0399 14.6288 28.722 15.3314 29.2936 16.1879C29.4348 16.4008 30.5596 18.9727 30.4285 18.9293C28.7369 18.3335 27.6202 17.1769 26.4752 15.8479C25.4906 14.7051 24.1342 12.484 22.5798 12.149C21.0429 15.3351 25.8492 18.1466 27.4477 20.0446C25.8539 19.3973 24.8521 17.8263 23.3284 17.0671C23.8539 18.0021 23.3812 19.4374 23.8488 20.5234C24.3317 21.6306 25.1643 22.279 26.2952 22.6954C28.0757 23.3652 29.755 23.9217 31.5307 24.2027C33.4155 24.5011 35.4576 23.8883 37.0815 25.1859C35.8191 26.5207 32.3457 25.3556 30.891 24.9806C30.0594 24.7689 23.7776 22.7133 23.8376 22.4319C22.7246 27.768 30.4299 30.0443 34.1549 30.0819C35.396 30.0906 36.6411 29.9806 37.8813 29.9481C38.522 29.9314 40.6928 30.3541 41.1647 30.0641C37.6182 32.2639 32.6394 31.5291 28.9569 30.1328C28.1015 29.8128 27.2474 29.3923 26.378 29.3462C24.6603 33.2645 30.3393 34.3093 32.8161 34.546C34.8486 34.7376 36.9262 35.3468 38.9757 35.2463C40.4458 35.1761 41.8229 34.3596 43.2693 34.1811C41.6191 35.491 39.0325 35.9158 36.9725 35.9885C34.5007 36.0697 31.9431 34.8015 29.4926 35.1922C28.869 36.8943 32.5231 39.3755 33.7551 39.976C36.1425 41.1423 39.4686 41.0152 42.0665 41.0549C43.5335 41.0737 44.9552 40.4211 46.3247 39.9541C47.1413 39.6784 49.5873 39.5482 50.1429 39.0851C48.8696 40.1383 46.8899 40.6641 45.2937 41.0089C44.2733 41.2296 43.2444 41.434 42.2051 41.5397C41.2808 41.6266 39.9516 41.2605 39.1026 41.4826C36.7722 42.1014 38.1998 43.7854 39.7388 44.1702C43.1459 45.0037 46.3634 45.042 49.7615 44.419C48.0706 44.7262 46.7004 45.4766 44.8032 45.5344C42.9108 45.5854 41.1332 44.8974 39.1932 45.2692C39.2973 47.4126 46.6023 48.0428 48.0901 48.1881C49.8173 48.353 51.4946 48.1071 53.1334 47.59C53.9911 47.3134 55.492 46.3527 56.5929 46.1188C56.9014 46.0563 57.1715 46.0474 57.3858 46.1302C57.6001 46.2131 54.7379 48.5898 54.3726 48.7737C54.1607 48.8853 53.944 49.0035 53.7388 49.1198Z" fill="#A3CE24"/>
<path opacity="0.42" d="M44.5067 49.0126C39.8233 47.6685 35.7619 44.9354 32.4043 41.4197C26.1303 34.8471 22.4084 25.016 22.0584 15.983C21.9769 13.9775 21.7502 11.0869 20.5169 9.40052C19.6483 8.2091 17.5639 6.87497 20.2153 6.9531C21.7158 6.99593 22.8162 7.76559 24.1125 8.29057C25.2299 9.1637 26.1517 10.1398 26.6262 11.5553C26.6613 11.6617 26.6984 11.7795 26.7288 11.8926C27.4058 14.3256 25.5973 13.7372 24.1049 14.3187C21.746 15.2315 24.4067 17.4863 25.7416 18.2823C26.8528 18.9381 29.0847 19.0497 29.711 20.2395C27.9354 21.5406 25.6487 19.9091 23.8421 19.3321C23.1842 22.9465 29.0014 23.8979 31.6389 23.7835C34.8118 23.6579 32.5276 25.3848 30.8237 25.9362C29.7254 26.2936 28.7877 26.3709 27.6359 26.2944C26.8125 26.2407 25.6105 25.895 24.8956 26.1423C26.6614 27.7649 28.5481 28.8658 30.9942 29.5266C32.2622 29.8792 34.0223 30.2808 35.3829 30.3348C36.5884 30.3788 37.9726 29.8209 39.0589 30.4689C38.7959 31.9229 35.0814 32.3086 33.9139 32.3528C31.105 32.4658 29.0484 31.9122 26.4294 31.0968C26.4459 32.2038 27.9406 33.4695 28.8115 34.0644C30.0736 34.9196 31.6986 34.9302 33.167 35.1731C34.8852 35.4635 36.6944 35.7685 38.428 35.6137C39.4807 35.5175 41.9886 34.3265 42.8148 34.8283C42.2474 36.226 39.6624 37.1995 38.3446 37.6934C35.9982 38.5746 33.1421 38.4002 30.8269 37.4581C30.8515 38.3986 33.0299 39.6582 33.8103 40.0967C37.8384 42.3395 42.4889 41.3987 46.7238 40.048C47.7617 39.7181 48.9682 38.9415 48.3714 40.6628C48.0416 41.6024 47.1621 42.1778 46.2438 42.5529C43.4832 43.7146 40.3653 42.8454 37.5149 43.101C38.899 43.7296 40.5941 44.4901 42.1279 44.6278C44.6968 45.5695 47.8003 44.015 50.2478 44.8999C48.7146 46.1316 46.8897 46.4136 44.9633 46.2577C43.6957 46.1589 42.0528 45.2127 40.8052 45.5239C39.528 45.834 39.7475 46.5594 40.7667 47.2303C42.4829 48.371 45.0543 47.8543 46.9821 48.2342C47.854 48.4039 48.2214 48.1606 47.8635 49.2524C47.8278 49.3586 47.7692 49.4686 47.6971 49.5689C46.6161 49.4926 45.5412 49.3091 44.5067 49.0126Z" fill="#A3CE24"/>
<path opacity="0.42" d="M41.9452 44.5575C42.0083 44.5825 42.0695 44.5961 42.1327 44.6211C42.1739 44.6203 42.2236 44.6357 42.2648 44.6349C42.1567 44.5877 42.0524 44.5635 41.9452 44.5575Z" fill="#A3CE24"/>
<path d="M51.9436 49.4029C49.5102 49.8261 46.8857 49.6963 44.5067 49.0127C44.0924 48.8977 43.6838 48.7464 43.2839 48.6114C43.7806 48.7246 44.2639 48.8282 44.6919 48.8819C46.9176 49.1716 50.2693 49.1643 52.1791 47.8176C52.6175 47.5036 52.9603 47.1109 53.2027 46.646C54.0262 45.0469 51.7905 44.5168 50.6827 44.4213C48.877 44.281 47.0082 44.9066 45.2284 45.1399C43.0722 45.4173 39.4218 45.0074 37.1174 43.5559C40.7445 44.9023 49.5775 45.7066 50.7183 41.1511C50.7715 40.9358 50.7099 40.6684 50.4726 40.5894C48.1395 39.8982 45.9912 40.8708 43.6435 41.1324C41.4011 41.3885 35.0442 40.7088 34.0705 40.243C37.5217 40.662 41.7561 40.3149 44.5665 38.7731C46.2493 37.8415 45.061 35.7817 43.6728 35.2719C41.7611 34.5587 39.6204 35.5773 37.6058 35.4595C35.3127 35.3343 33.0667 35.1011 30.827 34.6189C30.2345 34.4978 29.6691 34.2541 29.0846 34.0373C27.9967 33.6315 26.914 33.0774 26.4196 31.9721C27.9914 33.4553 30.2211 33.6972 32.244 33.9021C34.4518 34.118 36.6547 34.3407 38.658 33.1321C39.3514 32.7172 41.4649 31.4965 40.7464 30.3926C40.1215 29.4268 37.2468 29.7867 36.2709 29.8466C34.135 29.9967 32.2627 29.6666 30.1837 29.2997C28.3296 28.9726 26.9454 28.344 25.5725 26.9934C27.9824 28.3685 30.7318 28.7198 33.4596 28.5079C34.7593 28.4066 37.658 27.6177 36.4723 25.6815C35.4927 24.0656 32.7805 24.5523 31.233 24.5467C28.9146 24.5556 26.4328 23.21 24.4752 22.1089C25.7665 22.3159 26.9726 22.9383 28.2998 22.9683C28.9921 22.9786 30.4217 23.0212 30.9828 22.6635C32.2267 21.863 30.7875 21.4382 30.0632 21.1617C28.0052 20.384 26.4199 19.3575 24.7542 17.9487C23.3971 16.8021 22.6668 15.4463 22.1489 13.7664C22.7938 15.6084 24.2981 16.4652 25.8173 17.4849C26.9436 18.2326 28.3696 19.3679 29.8031 18.5717C30.1224 18.3953 30.1942 18.0411 30.5123 17.9653C31.0795 17.8249 31.5514 18.3259 31.9663 18.6237C32.3544 18.9023 32.7688 19.0173 33.1694 19.2643C34.1763 19.8959 34.1072 21.1646 34.623 22.1129C35.1932 23.1408 36.1393 23.9417 36.9446 24.7834C37.9505 25.8401 38.9467 26.9102 39.9411 27.9689C41.8944 30.0506 43.8401 32.1571 45.8049 34.237C48.4241 37.0298 50.9847 39.8618 53.4436 42.7932C55.1825 44.8629 56.4227 46.0169 58.947 46.7947C59.1776 46.869 59.5174 46.9608 59.904 47.0862C59.6672 48.3765 58.843 48.2816 57.4079 48.5291C55.5742 48.8657 53.7513 49.0883 51.9436 49.4029Z" fill="#6D9E02"/>
<path d="M52.9435 44.4927C51.2983 43.2813 49.8117 41.849 48.2645 40.5152C44.8595 37.5739 41.1453 34.5831 38.3489 31.0342C35.4713 27.3866 32.5993 23.8442 29.9942 19.9865C27.5589 16.3725 25.012 12.2219 21.8177 9.26961C21.1421 8.64268 20.1332 8.07051 19.3077 7.68071C19.2178 7.63645 19.1116 7.60077 18.9939 7.56697C18.8043 7.1672 19.0347 6.91685 20.2269 6.95128C21.7934 7.00097 22.9281 7.83583 24.302 8.36578C25.694 8.89865 27.1955 8.9118 28.6872 9.00919C30.0995 9.09011 31.5 9.31465 32.8977 9.48651C41.9934 10.5605 48.9939 18.0705 53.9989 25.1113C56.9394 29.2504 59.8335 33.6096 59.7205 38.8522C59.6852 40.3987 59.6903 41.9031 59.5841 43.4494C59.5037 44.6491 60.0748 45.7182 59.9264 46.8995C59.8473 47.5323 59.655 47.8709 59.3462 48.0751C57.1027 47.1744 55.0322 46.0327 52.9435 44.4927Z" fill="#61A304"/>
<path opacity="0.6" d="M21.8062 9.27144C21.1306 8.64452 20.1217 8.07234 19.2962 7.68254C19.2063 7.63828 19.1001 7.60259 18.9824 7.5688C18.7928 7.16902 19.0232 6.91868 20.2153 6.95311C20.3274 6.95242 20.4365 6.96992 20.5389 6.98261C20.4976 7.05434 20.4696 7.13566 20.4732 7.22952C20.4913 7.69879 21.33 8.16906 21.6713 8.41406C22.2353 8.82909 22.6066 9.32889 23.0362 9.86043C24.5649 11.7285 25.8692 13.7397 27.4046 15.6126C28.2028 16.5913 30.0353 20.3811 31.3747 20.5212C32.5867 20.6409 32.0069 19.2309 31.7371 18.3071C31.4265 17.2425 30.8409 16.6598 30.3663 15.7107C29.8621 14.6896 29.5717 13.5685 28.9257 12.618C28.1489 11.4823 27.2843 10.6385 26.3884 9.64048C27.9862 10.2399 29.1891 12.6042 30.062 14.0016C31.2945 15.9714 32.211 17.9578 32.7832 20.1837C33.2577 21.9947 33.5892 23.5104 34.8892 24.9202C35.1051 25.1563 35.4426 25.7738 35.7993 25.5736C36.2845 25.2932 35.995 24.2133 36.0564 23.7605C36.207 22.8444 36.4302 22.0108 36.4679 21.0543C36.5351 19.3786 36.3362 17.664 36.2913 15.989C36.2478 14.5382 35.839 12.8757 35.1105 11.6023C36.8022 14.5711 37.6553 17.4651 37.3665 20.9185C37.2709 22.0262 37.3726 23.1842 37.2225 24.2832C37.0647 25.4071 36.9288 26.5568 37.4405 27.6239C37.9227 28.619 38.8246 29.5098 39.5609 30.3629C40.5693 31.5432 41.055 31.0502 41.4096 29.7228C42.0231 27.4557 41.772 25.1358 42.2044 22.8807C42.5981 20.8208 41.9028 18.4558 41.6884 16.3955C41.5248 14.7164 41.038 13.2616 40.3641 11.926C40.4157 11.9529 40.4674 11.9799 40.519 12.0068C40.5774 12.0386 40.6357 12.0703 40.6959 12.1135C42.9132 14.7599 43.0778 18.4576 43.513 21.863C43.5141 22.2288 43.5103 22.6013 43.5066 22.9738C43.4399 25.2278 43.3378 27.5172 43.4492 29.7775C43.525 31.3529 43.319 33.0101 44.7769 34.0161C45.3219 34.3871 46.156 34.7932 46.7126 34.3004C46.9697 34.0692 47.1586 33.566 47.2724 33.2522C48.3366 30.3148 48.0725 26.9817 48.2359 23.9149C48.3391 21.9913 48.361 20.0397 48.2315 18.1012C48.2516 18.1156 48.2669 18.1367 48.2821 18.1578C48.2888 18.1626 48.2955 18.1674 48.2974 18.1789C49.4831 20.1151 49.4249 22.4564 49.502 24.6514C49.5405 25.7843 49.6717 27.0142 49.5569 28.1487C49.4568 29.1923 49.4026 30.2283 49.3139 31.27C49.1829 32.8085 48.987 34.2397 49.0159 35.7815C49.0465 37.8012 49.6134 41.0374 52.0899 41.4158C53.7067 41.6638 54.5562 38.7853 54.9697 37.6726C55.917 35.1381 55.7781 31.9557 55.6858 29.2732C55.6633 28.6689 55.6293 28.0664 55.5838 27.4659C55.7575 27.7325 55.9378 28.004 56.1048 28.2658C56.517 28.9065 56.4853 30.1513 56.6444 30.9043C56.864 31.9544 56.4993 33.1123 56.4412 34.1961C56.3241 36.3227 56.1741 39.0037 55.3171 40.9743C54.9445 41.8324 53.9357 44.8197 55.9573 44.405C58.0296 43.9762 59.2297 41.0755 59.675 39.0426C59.6466 40.523 59.6441 41.9815 59.5467 43.4732C59.4663 44.6729 60.0373 45.742 59.889 46.9233C59.8099 47.5561 59.6176 47.8947 59.3087 48.0989C57.336 47.3013 55.5027 46.3096 53.6718 45.046C51.9532 43.7108 50.273 42.3221 48.6284 40.8981C48.4908 40.779 48.3531 40.6599 48.2155 40.5409C48.0292 40.3767 47.838 40.2192 47.6517 40.055C47.0372 39.5125 46.4113 38.9718 45.8016 38.4226C43.5684 36.4341 41.2012 34.4204 39.2109 32.1499C38.8987 31.7939 38.5912 31.4312 38.3 31.0599C35.4224 27.4122 32.5503 23.8699 29.9452 20.0122C28.5406 17.9289 27.1278 15.6168 25.4924 13.5301C24.3805 11.9713 23.1554 10.5138 21.8062 9.27144Z" fill="#468E02"/>
<path opacity="0.31" d="M56.4275 42.3798C55.6653 41.5487 56.7875 37.9939 56.9583 37.0213C57.6453 33.2251 57.5131 30.0474 54.7124 27.0836C53.8565 26.1853 53.1129 25.6109 52.5187 26.9894C51.7754 28.7171 52.1872 32.7343 52.3082 34.5856C52.3664 35.4792 52.9807 40.5139 50.8833 39.4239C49.7604 38.8409 49.964 35.8029 49.8831 34.7714C49.703 32.3807 49.6501 30.0814 50.0168 27.6777C50.2415 26.2064 51.1629 23.6939 50.6799 22.2621C50.0894 20.4996 46.0645 18.097 45.9898 21.3086C45.9308 23.6087 45.9828 25.8668 45.8117 28.1676C45.7572 28.9498 45.7064 33.7808 44.528 32.8233C43.7117 32.1664 43.9494 29.2644 43.8483 28.2893C43.5986 25.798 43.3704 23.0788 43.5094 20.5826C43.5955 19.0219 43.9377 16.4688 42.0904 15.6801C40.6937 15.0831 40.387 16.4144 40.1681 17.4538C39.6228 20.0639 40.732 23.943 39.1771 26.2644C37.924 28.123 37.7413 25.6088 37.5909 24.4057C37.3738 22.6882 37.4201 20.9569 37.3954 19.2255C37.3643 17.8139 37.5 13.8957 35.2148 14.0703C34.9243 15.393 36.1633 19.4869 34.2859 20.0962C33.1762 20.4556 33.1364 17.8412 32.9272 17.2144C32.3074 15.3092 30.5549 11.3233 28.3466 10.9245C27.0959 12.9775 31.2235 15.2511 30.1641 17.3908C28.534 16.6668 27.5572 15.1035 26.5022 13.7479C25.537 12.5074 24.1696 11.2622 22.7721 10.2285C22.4521 9.89732 22.1339 9.57768 21.7995 9.26662C21.124 8.63969 20.1151 8.06751 19.2896 7.67772C19.1997 7.63345 19.0934 7.59777 18.9757 7.56397C18.7861 7.1642 19.0165 6.91385 20.2087 6.94829C21.7752 6.99798 22.9099 7.83284 24.2838 8.36279C25.6759 8.89566 27.1774 8.9088 28.6691 9.0062C30.0814 9.08712 31.4818 9.31165 32.8795 9.48352C41.9752 10.5576 48.9757 18.0675 53.9807 25.1083C56.4526 28.5864 58.885 32.2187 59.531 36.404C59.4004 36.939 59.0288 37.372 58.1828 37.5758C58.6488 38.5087 57.6482 43.7023 56.4275 42.3798Z" fill="#A3CE24"/>
<path d="M25.3485 13.2645C25.2502 13.1331 25.1518 13.0016 25.0487 12.8769C26.7186 14.1669 28.2439 16.6613 29.4409 18.271C30.4327 19.6016 31.2849 22.0589 32.6059 23.058C32.9187 21.6194 32.0356 19.2616 31.4403 17.9014C32.5994 19.352 33.0722 21.0807 33.4999 22.8581C33.9086 24.5205 34.3562 26.3831 36.0628 27.1418C37.2195 25.9542 36.6055 23.6172 36.9949 22.1424C37.5746 24.4143 36.9856 27.6927 37.2382 28.5839C37.5943 29.8536 41.0481 32.7691 42.4023 33.1429C42.6301 32.3735 42.1939 31.3708 42.1585 30.5443C42.1193 29.6948 42.2727 28.8314 42.1646 27.9933C42.8669 29.8259 42.8631 31.4557 43.212 33.3287C43.5779 35.3051 45.1956 36.7808 46.6838 37.9708C48.564 35.7613 47.5086 32.1744 48.8512 29.7817C49.5374 31.1565 48.8129 33.3947 48.7117 34.8634C48.6093 36.4327 48.4984 37.9857 49.1431 39.5031C49.6421 40.6726 50.6689 42.1804 52.092 42.1474C53.5811 42.1212 54.975 39.8971 55.4835 38.6803C55.3998 40.4354 53.2881 42.5294 54.1524 44.3059C54.8395 45.722 56.2295 45.9187 57.5508 45.1941C58.7417 44.5381 59.1344 43.2989 59.6141 42.1222C59.5987 42.5674 59.5899 43.0175 59.5582 43.4713C59.4778 44.671 60.0489 45.7401 59.9005 46.9214C59.8214 47.5542 59.6291 47.8928 59.3203 48.097C57.9924 47.5595 56.7251 46.9235 55.4838 46.1946C52.375 43.5471 49.0368 41.1203 45.8628 38.507C43.1764 36.2034 40.473 33.7962 38.3163 31.0513C35.4388 27.4037 32.5667 23.8613 29.9616 20.0036C28.5655 17.9367 27.1296 15.6991 25.5632 13.6011C25.5127 13.4736 25.4297 13.3633 25.3485 13.2645Z" fill="#4A8209"/>
<path opacity="0.24" d="M29.8688 36.4763C30.7516 38.114 31.8205 39.6621 33.2373 41.0646C37.3214 45.1221 46.3305 49.6223 51.9868 46.1079C51.2282 44.1841 46.2252 42.7626 44.4687 41.6639C39.9803 38.8475 36.3771 34.6991 33.2174 30.4839C30.2239 26.4893 28.8186 19.4063 23.697 17.5143C21.8823 19.9433 24.2344 23.5179 25.2682 25.6798C26.9737 29.3075 28.0296 33.0772 29.8688 36.4763Z" fill="#CCEA86"/>
<path opacity="0.2" d="M43.1796 16.7055C43.0676 16.7062 42.9767 16.6916 42.8857 16.677C42.8694 16.6856 42.8579 16.6875 42.8416 16.696C42.9641 16.7231 43.0714 16.7291 43.1796 16.7055Z" fill="#CCEA86"/>
<path opacity="0.2" d="M47.9319 19.6911C47.1409 19.2956 46.2751 19.3434 45.7476 18.4678C45.4147 17.9145 45.5993 17.2053 45.0393 16.7424C44.4591 16.2651 43.4506 16.3422 42.8857 16.677C42.1076 16.5037 42.1911 15.6105 41.6206 15.1198C41.1724 14.727 40.371 14.6993 39.8758 14.3438C38.7898 13.554 38.6398 11.8137 37.5727 11.1389C36.4224 10.4247 35.1875 11.4244 34.122 11.2983C33.1704 11.1831 32.7274 10.2464 31.8104 10.0546C30.6915 9.81927 30.0974 10.8023 29.1661 10.6306C27.7121 10.3676 26.5501 9.72611 25.0314 9.68037C24.1179 9.6533 23.3448 9.79797 22.582 10.0413C22.326 9.7764 22.0699 9.51149 21.7995 9.26666C21.124 8.63973 20.1151 8.06756 19.2896 7.67776C19.1997 7.6335 19.0935 7.59781 18.9757 7.56402C18.7861 7.16424 19.0166 6.91389 20.2087 6.94833C21.7752 6.99802 22.9099 7.83288 24.2838 8.36283C25.6759 8.8957 27.1774 8.90884 28.6691 9.00624C30.0814 9.08716 31.4818 9.31169 32.8795 9.48356C41.9752 10.5576 48.9757 18.0675 53.9807 25.1083C54.1401 25.3241 54.288 25.5419 54.4426 25.7644C53.1718 24.1727 51.6468 22.794 50.1274 21.4497C49.4336 20.8198 48.7545 20.0991 47.9319 19.6911Z" fill="#CCEA86"/>
<path opacity="0.25" d="M31.864 37.4827C32.5133 38.2733 33.2665 38.8343 33.9543 39.5714C34.6706 40.3392 34.7971 41.5049 35.6441 42.1332C36.3352 42.6395 37.3761 42.687 38.1482 42.9675C39.236 43.3733 40.2247 44.0019 41.3259 44.4172C42.3774 44.8171 43.4155 45.2074 44.4959 45.4963C45.1008 45.6567 46.233 46.2972 46.8355 46.2632C47.3325 46.2347 47.6103 46.2009 47.6952 45.5317C47.8794 44.1733 45.9546 43.3796 45.0361 43.0346C43.3139 42.3966 41.3653 42.3565 39.8732 41.2144C38.6793 40.3066 37.8723 38.987 37.0852 37.7527C36.0052 36.0647 34.8737 34.279 33.6863 32.6559C32.5733 31.1268 31.113 30.3218 30.2294 28.5721C29.8339 27.7811 29.3888 27.2993 28.9614 26.6375C28.4795 25.8962 25.4492 18.0117 24.3846 19.1132C23.5053 20.0132 25.9475 24.3522 26.3385 25.4037C27.2092 27.7222 28.5013 30.0187 29.0721 32.416C29.5348 34.3707 30.6007 35.937 31.864 37.4827Z" fill="#CCEA86"/>
<defs>
<clipPath id="clip0_1803_348">
<rect width="30.18" height="23.44" fill="white" transform="translate(66 62)"/>
</clipPath>
<clipPath id="clip1_1803_348">
<rect width="61" height="36" fill="white" transform="translate(-14 100.828) rotate(-60)"/>
</clipPath>
</defs>
</svg>
