<svg width="199" height="102" viewBox="0 0 199 102" fill="none" xmlns="http://www.w3.org/2000/svg">
<path d="M52.7203 38.8522C52.685 40.3986 52.6901 41.9031 52.5839 43.4493C52.5035 44.649 53.0746 45.7181 52.9262 46.8995C52.7339 48.4245 51.9021 48.2837 50.3865 48.5444C48.5673 48.8608 46.7444 49.0835 44.9367 49.398C42.5033 49.8213 39.8788 49.6915 37.4998 49.0079C32.8165 47.6637 28.755 44.9306 25.3974 41.4149C19.1301 34.8471 15.4082 25.016 15.0582 15.983C14.9767 13.9776 14.75 11.0869 13.5167 9.40053C12.6481 8.20911 10.5637 6.87499 13.2152 6.95311C14.7817 7.0028 15.9164 7.83767 17.2903 8.36762C18.6823 8.90049 20.1838 8.91363 21.6756 9.01102C23.0878 9.09195 24.4883 9.31648 25.886 9.48835C34.9817 10.5624 41.9822 18.0723 46.9872 25.1131C49.9325 29.2455 52.8266 33.6047 52.7203 38.8522Z" fill="#78AF02"/>
<path opacity="0.42" d="M46.7388 49.12C46.1391 49.2066 45.5346 49.3 44.9435 49.403C42.5102 49.8262 39.8857 49.6964 37.5067 49.0128C32.8233 47.6687 28.7619 44.9356 25.4043 41.4198C19.1303 34.8472 15.4084 25.0161 15.0584 15.9831C14.9769 13.9777 14.7502 11.0871 13.5169 9.40066C12.6483 8.20924 10.5639 6.87511 13.2154 6.95324C14.4075 6.98767 15.3572 7.48693 16.3425 7.95084C18.0391 9.65559 18.8506 11.9012 20.4021 13.8364C21.0399 14.6289 21.722 15.3315 22.2936 16.188C22.4348 16.4009 23.5596 18.9729 23.4285 18.9295C21.7369 18.3336 20.6202 17.1771 19.4752 15.848C18.4906 14.7052 17.1342 12.4841 15.5798 12.1491C14.0429 15.3353 18.8492 18.1467 20.4477 20.0447C18.8539 19.3974 17.8521 17.8265 16.3284 17.0673C16.8539 18.0022 16.3812 19.4375 16.8488 20.5236C17.3317 21.6308 18.1643 22.2791 19.2952 22.6955C21.0757 23.3653 22.755 23.9218 24.5307 24.2028C26.4155 24.5012 28.4576 23.8884 30.0815 25.186C28.8191 26.5208 25.3457 25.3558 23.891 24.9808C23.0594 24.7691 16.7776 22.7135 16.8376 22.4321C15.7246 27.7681 23.4299 30.0445 27.1549 30.082C28.396 30.0907 29.6411 29.9807 30.8813 29.9482C31.522 29.9316 33.6928 30.3542 34.1647 30.0642C30.6182 32.2641 25.6394 31.5292 21.9569 30.1329C21.1015 29.8129 20.2474 29.3924 19.378 29.3463C17.6603 33.2646 23.3393 34.3095 25.8161 34.5461C27.8486 34.7377 29.9262 35.3469 31.9757 35.2464C33.4458 35.1762 34.8229 34.3597 36.2693 34.1812C34.6191 35.4911 32.0325 35.9159 29.9725 35.9886C27.5007 36.0699 24.9431 34.8016 22.4926 35.1923C21.869 36.8944 25.5231 39.3756 26.7551 39.9761C29.1425 41.1424 32.4686 41.0153 35.0665 41.055C36.5335 41.0738 37.9552 40.4212 39.3247 39.9543C40.1413 39.6785 42.5873 39.5483 43.1429 39.0852C41.8696 40.1384 39.8899 40.6642 38.2937 41.009C37.2733 41.2297 36.2444 41.4341 35.2051 41.5399C34.2808 41.6267 32.9516 41.2606 32.1026 41.4827C29.7722 42.1015 31.1998 43.7855 32.7388 44.1703C36.1459 45.0039 39.3634 45.0421 42.7615 44.4192C41.0706 44.7264 39.7004 45.4767 37.8032 45.5345C35.9108 45.5855 34.1332 44.8976 32.1932 45.2693C32.2973 47.4127 39.6023 48.0429 41.0901 48.1882C42.8173 48.3532 44.4946 48.1072 46.1334 47.5902C46.9911 47.3135 48.492 46.3528 49.5929 46.1189C49.9014 46.0564 50.1715 46.0475 50.3858 46.1303C50.6001 46.2132 47.7379 48.5899 47.3726 48.7738C47.1607 48.8854 46.944 49.0036 46.7388 49.12Z" fill="#A3CE24"/>
<path opacity="0.42" d="M37.5067 49.0128C32.8233 47.6686 28.7619 44.9355 25.4043 41.4198C19.1303 34.8472 15.4084 25.0161 15.0584 15.9831C14.9769 13.9777 14.7502 11.087 13.5169 9.40064C12.6483 8.20922 10.5639 6.8751 13.2153 6.95322C14.7158 6.99605 15.8162 7.76571 17.1125 8.29069C18.2299 9.16382 19.1517 10.1399 19.6262 11.5554C19.6613 11.6618 19.6984 11.7797 19.7288 11.8927C20.4058 14.3257 18.5973 13.7373 17.1049 14.3188C14.746 15.2316 17.4067 17.4864 18.7416 18.2825C19.8528 18.9382 22.0847 19.0498 22.711 20.2397C20.9354 21.5407 18.6487 19.9092 16.8421 19.3323C16.1842 22.9466 22.0014 23.898 24.6389 23.7836C27.8118 23.658 25.5276 25.3849 23.8237 25.9363C22.7254 26.2937 21.7877 26.371 20.6359 26.2945C19.8125 26.2408 18.6105 25.8952 17.8956 26.1424C19.6614 27.765 21.5481 28.8659 23.9942 29.5268C25.2622 29.8793 27.0223 30.2809 28.3829 30.3349C29.5884 30.3789 30.9726 29.8211 32.0589 30.4691C31.7959 31.9231 28.0814 32.3088 26.9139 32.3529C24.105 32.4659 22.0484 31.9123 19.4294 31.0969C19.4459 32.204 20.9406 33.4697 21.8115 34.0645C23.0736 34.9198 24.6986 34.9303 26.167 35.1732C27.8852 35.4636 29.6944 35.7686 31.428 35.6138C32.4807 35.5176 34.9886 34.3266 35.8148 34.8284C35.2474 36.2261 32.6624 37.1996 31.3446 37.6935C28.9982 38.5747 26.1421 38.4003 23.8269 37.4583C23.8515 38.3987 26.0299 39.6583 26.8103 40.0969C30.8384 42.3396 35.4889 41.3988 39.7238 40.0481C40.7617 39.7183 41.9682 38.9416 41.3714 40.663C41.0416 41.6025 40.1621 42.1779 39.2438 42.553C36.4832 43.7147 33.3653 42.8455 30.5149 43.1011C31.899 43.7297 33.5941 44.4902 35.1279 44.6279C37.6968 45.5696 40.8003 44.0152 43.2478 44.9001C41.7146 46.1317 39.8897 46.4137 37.9633 46.2578C36.6957 46.1591 35.0528 45.2129 33.8052 45.524C32.528 45.8341 32.7475 46.5595 33.7667 47.2304C35.4829 48.3711 38.0543 47.8544 39.9821 48.2344C40.854 48.404 41.2214 48.1607 40.8635 49.2525C40.8278 49.3587 40.7692 49.4687 40.6971 49.5691C39.6161 49.4928 38.5412 49.3092 37.5067 49.0128Z" fill="#A3CE24"/>
<path opacity="0.42" d="M34.9452 44.5576C35.0083 44.5827 35.0695 44.5962 35.1327 44.6213C35.1739 44.6204 35.2236 44.6358 35.2648 44.635C35.1567 44.5878 35.0524 44.5636 34.9452 44.5576Z" fill="#A3CE24"/>
<path d="M44.9436 49.4028C42.5102 49.826 39.8857 49.6962 37.5067 49.0126C37.0924 48.8976 36.6838 48.7463 36.2839 48.6113C36.7806 48.7245 37.2639 48.8281 37.6919 48.8818C39.9176 49.1715 43.2693 49.1642 45.1791 47.8175C45.6175 47.5035 45.9603 47.1107 46.2027 46.6459C47.0262 45.0467 44.7905 44.5167 43.6827 44.4211C41.877 44.2809 40.0082 44.9065 38.2284 45.1398C36.0722 45.4172 32.4218 45.0072 30.1174 43.5558C33.7445 44.9022 42.5775 45.7065 43.7183 41.151C43.7715 40.9356 43.7099 40.6683 43.4726 40.5892C41.1395 39.898 38.9912 40.8707 36.6435 41.1322C34.4011 41.3883 28.0442 40.7086 27.0705 40.2428C30.5217 40.6619 34.7561 40.3147 37.5665 38.773C39.2493 37.8414 38.061 35.7816 36.6728 35.2717C34.7611 34.5586 32.6204 35.5772 30.6058 35.4594C28.3127 35.3342 26.0667 35.101 23.827 34.6187C23.2345 34.4976 22.6691 34.254 22.0846 34.0372C20.9967 33.6314 19.914 33.0773 19.4196 31.972C20.9914 33.4552 23.2211 33.697 25.244 33.902C27.4518 34.1179 29.6547 34.3405 31.658 33.132C32.3514 32.7171 34.4649 31.4964 33.7464 30.3924C33.1215 29.4266 30.2468 29.7866 29.2709 29.8465C27.135 29.9966 25.2627 29.6665 23.1837 29.2996C21.3296 28.9725 19.9454 28.3439 18.5725 26.9932C20.9824 28.3684 23.7318 28.7196 26.4596 28.5078C27.7593 28.4065 30.658 27.6176 29.4723 25.6814C28.4927 24.0655 25.7805 24.5522 24.233 24.5466C21.9146 24.5555 19.4328 23.2099 17.4752 22.1087C18.7665 22.3158 19.9726 22.9382 21.2998 22.9682C21.9921 22.9784 23.4217 23.0211 23.9828 22.6633C25.2267 21.8629 23.7875 21.4381 23.0632 21.1615C21.0052 20.3838 19.4199 19.3574 17.7542 17.9486C16.3971 16.802 15.6668 15.4462 15.1489 13.7662C15.7938 15.6083 17.2981 16.4651 18.8173 17.4847C19.9436 18.2324 21.3696 19.3677 22.8031 18.5715C23.1224 18.3951 23.1942 18.041 23.5123 17.9651C24.0795 17.8248 24.5514 18.3257 24.9663 18.6236C25.3544 18.9022 25.7688 19.0172 26.1694 19.2642C27.1763 19.8958 27.1072 21.1644 27.623 22.1127C28.1932 23.1407 29.1393 23.9416 29.9446 24.7833C30.9505 25.84 31.9467 26.9101 32.9411 27.9687C34.8944 30.0504 36.8401 32.157 38.8049 34.2368C41.4241 37.0297 43.9847 39.8617 46.4436 42.7931C48.1825 44.8628 49.4227 46.0168 51.947 46.7946C52.1776 46.8689 52.5174 46.9607 52.904 47.0861C52.6672 48.3764 51.843 48.2815 50.4079 48.529C48.5742 48.8655 46.7513 49.0882 44.9436 49.4028Z" fill="#6D9E02"/>
<path d="M45.9435 44.4926C44.2983 43.2811 42.8117 41.8489 41.2645 40.5151C37.8595 37.5738 34.1453 34.583 31.3489 31.0341C28.4713 27.3864 25.5993 23.8441 22.9942 19.9864C20.5589 16.3723 18.012 12.2217 14.8177 9.26949C14.1421 8.64256 13.1332 8.07039 12.3077 7.68059C12.2178 7.63633 12.1116 7.60064 11.9939 7.56685C11.8043 7.16708 12.0347 6.91673 13.2269 6.95116C14.7934 7.00085 15.9281 7.83571 17.302 8.36566C18.694 8.89853 20.1955 8.91168 21.6872 9.00907C23.0995 9.08999 24.5 9.31453 25.8977 9.48639C34.9934 10.5604 41.9939 18.0704 46.9989 25.1111C49.9394 29.2502 52.8335 33.6094 52.7205 38.8521C52.6852 40.3986 52.6903 41.903 52.5841 43.4493C52.5037 44.649 53.0748 45.7181 52.9264 46.8994C52.8473 47.5322 52.655 47.8707 52.3462 48.0749C50.1027 47.1742 48.0322 46.0326 45.9435 44.4926Z" fill="#61A304"/>
<path opacity="0.6" d="M14.8062 9.27157C14.1306 8.64464 13.1217 8.07246 12.2962 7.68267C12.2063 7.6384 12.1001 7.60272 11.9824 7.56892C11.7928 7.16915 12.0232 6.9188 13.2153 6.95323C13.3274 6.95254 13.4365 6.97004 13.5389 6.98273C13.4976 7.05446 13.4696 7.13579 13.4732 7.22964C13.4913 7.69891 14.33 8.16918 14.6713 8.41418C15.2353 8.82921 15.6066 9.32901 16.0362 9.86055C17.5649 11.7287 18.8692 13.7399 20.4046 15.6128C21.2028 16.5914 23.0353 20.3812 24.3747 20.5213C25.5867 20.6411 25.0069 19.231 24.7371 18.3073C24.4265 17.2426 23.8409 16.6599 23.3663 15.7108C22.8621 14.6897 22.5717 13.5686 21.9257 12.6181C21.1489 11.4824 20.2843 10.6386 19.3884 9.6406C20.9862 10.24 22.1891 12.6044 23.062 14.0017C24.2945 15.9715 25.211 17.9579 25.7832 20.1838C26.2577 21.9948 26.5892 23.5105 27.8892 24.9204C28.1051 25.1564 28.4426 25.7739 28.7993 25.5737C29.2845 25.2933 28.995 24.2134 29.0564 23.7606C29.207 22.8445 29.4302 22.011 29.4679 21.0544C29.5351 19.3787 29.3362 17.6641 29.2913 15.9892C29.2478 14.5383 28.839 12.8759 28.1105 11.6024C29.8022 14.5712 30.6553 17.4652 30.3665 20.9186C30.2709 22.0264 30.3726 23.1844 30.2225 24.2833C30.0647 25.4072 29.9288 26.557 30.4405 27.624C30.9227 28.6192 31.8246 29.51 32.5609 30.363C33.5693 31.5433 34.055 31.0503 34.4096 29.723C35.0231 27.4558 34.772 25.1359 35.2044 22.8808C35.5981 20.8209 34.9028 18.4559 34.6884 16.3956C34.5248 14.7165 34.038 13.2617 33.3641 11.9261C33.4157 11.9531 33.4674 11.98 33.519 12.0069C33.5774 12.0387 33.6357 12.0704 33.6959 12.1136C35.9132 14.76 36.0778 18.4577 36.513 21.8631C36.5141 22.2289 36.5103 22.6014 36.5066 22.9739C36.4399 25.228 36.3378 27.5174 36.4492 29.7776C36.525 31.353 36.319 33.0102 37.7769 34.0163C38.3219 34.3872 39.156 34.7933 39.7126 34.3005C39.9697 34.0694 40.1586 33.5661 40.2724 33.2523C41.3366 30.3149 41.0725 26.9818 41.2359 23.915C41.3391 21.9914 41.361 20.0398 41.2315 18.1013C41.2516 18.1157 41.2669 18.1368 41.2821 18.1579C41.2888 18.1627 41.2955 18.1675 41.2974 18.179C42.4831 20.1153 42.4249 22.4565 42.502 24.6515C42.5405 25.7845 42.6717 27.0144 42.5569 28.1489C42.4568 29.1924 42.4026 30.2284 42.3139 31.2701C42.1829 32.8087 41.987 34.2398 42.0159 35.7816C42.0465 37.8013 42.6134 41.0375 45.0899 41.4159C46.7067 41.6639 47.5562 38.7854 47.9697 37.6727C48.917 35.1383 48.7781 31.9558 48.6858 29.2733C48.6633 28.669 48.6293 28.0666 48.5838 27.466C48.7575 27.7327 48.9378 28.0041 49.1048 28.2659C49.517 28.9066 49.4853 30.1514 49.6444 30.9045C49.864 31.9545 49.4993 33.1124 49.4412 34.1963C49.3241 36.3228 49.1741 39.0038 48.3171 40.9744C47.9445 41.8325 46.9357 44.8198 48.9573 44.4052C51.0296 43.9763 52.2297 41.0757 52.675 39.0428C52.6466 40.5232 52.6441 41.9816 52.5467 43.4733C52.4663 44.673 53.0373 45.7421 52.889 46.9234C52.8099 47.5562 52.6176 47.8948 52.3087 48.099C50.336 47.3014 48.5027 46.3097 46.6718 45.0461C44.9532 43.7109 43.273 42.3222 41.6284 40.8982C41.4908 40.7791 41.3531 40.6601 41.2155 40.541C41.0292 40.3768 40.838 40.2193 40.6517 40.0551C40.0372 39.5126 39.4113 38.972 38.8016 38.4228C36.5684 36.4342 34.2012 34.4205 32.2109 32.1501C31.8987 31.794 31.5912 31.4313 31.3 31.06C28.4224 27.4124 25.5503 23.87 22.9452 20.0123C21.5406 17.9291 20.1278 15.6169 18.4924 13.5302C17.3805 11.9714 16.1554 10.5139 14.8062 9.27157Z" fill="#468E02"/>
<path opacity="0.31" d="M49.4275 42.3799C48.6653 41.5488 49.7875 37.994 49.9583 37.0215C50.6453 33.2252 50.5131 30.0475 47.7124 27.0838C46.8565 26.1854 46.1129 25.611 45.5187 26.9895C44.7754 28.7172 45.1872 32.7344 45.3082 34.5857C45.3664 35.4793 45.9807 40.514 43.8833 39.424C42.7604 38.841 42.964 35.803 42.8831 34.7715C42.703 32.3809 42.6501 30.0815 43.0168 27.6778C43.2415 26.2065 44.1629 23.694 43.6799 22.2622C43.0894 20.4997 39.0645 18.0971 38.9898 21.3087C38.9308 23.6088 38.9828 25.867 38.8117 28.1677C38.7572 28.9499 38.7064 33.781 37.528 32.8234C36.7117 32.1665 36.9494 29.2645 36.8483 28.2894C36.5986 25.7981 36.3704 23.0789 36.5094 20.5827C36.5955 19.022 36.9377 16.4689 35.0904 15.6802C33.6937 15.0832 33.387 16.4145 33.1681 17.4539C32.6228 20.064 33.732 23.9431 32.1771 26.2645C30.924 28.1231 30.7413 25.6089 30.5909 24.4058C30.3738 22.6883 30.4201 20.957 30.3954 19.2256C30.3643 17.814 30.5 13.8958 28.2148 14.0704C27.9243 15.3931 29.1633 19.487 27.2859 20.0964C26.1762 20.4557 26.1364 17.8413 25.9272 17.2146C25.3074 15.3093 23.5549 11.3234 21.3466 10.9246C20.0959 12.9776 24.2235 15.2512 23.1641 17.3909C21.534 16.6669 20.5572 15.1037 19.5022 13.748C18.537 12.5076 17.1696 11.2623 15.7721 10.2286C15.4521 9.89744 15.1339 9.5778 14.7995 9.26674C14.124 8.63981 13.1151 8.06764 12.2896 7.67784C12.1997 7.63358 12.0934 7.59789 11.9757 7.5641C11.7861 7.16432 12.0165 6.91397 13.2087 6.94841C14.7752 6.9981 15.9099 7.83296 17.2838 8.36291C18.6759 8.89578 20.1774 8.90893 21.6691 9.00632C23.0814 9.08724 24.4818 9.31178 25.8795 9.48364C34.9752 10.5577 41.9757 18.0676 46.9807 25.1084C49.4526 28.5866 51.885 32.2188 52.531 36.4042C52.4004 36.9392 52.0288 37.3721 51.1828 37.576C51.6488 38.5088 50.6482 43.7024 49.4275 42.3799Z" fill="#A3CE24"/>
<path d="M18.3485 13.2645C18.2502 13.1331 18.1518 13.0016 18.0487 12.8769C19.7186 14.1669 21.2439 16.6613 22.4409 18.271C23.4327 19.6016 24.2849 22.0589 25.6059 23.058C25.9187 21.6194 25.0356 19.2616 24.4403 17.9014C25.5994 19.352 26.0722 21.0807 26.4999 22.8581C26.9086 24.5205 27.3562 26.3831 29.0628 27.1418C30.2195 25.9542 29.6055 23.6172 29.9949 22.1424C30.5746 24.4143 29.9856 27.6927 30.2382 28.5839C30.5943 29.8536 34.0481 32.7691 35.4023 33.1429C35.6301 32.3735 35.1939 31.3708 35.1585 30.5443C35.1193 29.6948 35.2727 28.8314 35.1646 27.9933C35.8669 29.8259 35.8631 31.4557 36.212 33.3287C36.5779 35.3051 38.1956 36.7808 39.6838 37.9708C41.564 35.7613 40.5086 32.1744 41.8512 29.7817C42.5374 31.1565 41.8129 33.3947 41.7117 34.8634C41.6093 36.4327 41.4984 37.9857 42.1431 39.5031C42.6421 40.6726 43.6689 42.1804 45.092 42.1474C46.5811 42.1212 47.975 39.8971 48.4835 38.6803C48.3998 40.4354 46.2881 42.5294 47.1524 44.3059C47.8395 45.722 49.2295 45.9187 50.5508 45.1941C51.7417 44.5381 52.1344 43.2989 52.6141 42.1222C52.5987 42.5674 52.5899 43.0175 52.5582 43.4713C52.4778 44.671 53.0489 45.7401 52.9005 46.9214C52.8214 47.5542 52.6291 47.8928 52.3203 48.097C50.9924 47.5595 49.7251 46.9235 48.4838 46.1946C45.375 43.5471 42.0368 41.1203 38.8628 38.507C36.1764 36.2034 33.473 33.7962 31.3163 31.0513C28.4388 27.4037 25.5667 23.8613 22.9616 20.0036C21.5655 17.9367 20.1296 15.6991 18.5632 13.6011C18.5127 13.4736 18.4297 13.3633 18.3485 13.2645Z" fill="#4A8209"/>
<path opacity="0.24" d="M22.8688 36.4762C23.7516 38.1139 24.8205 39.662 26.2373 41.0645C30.3214 45.122 39.3305 49.6221 44.9868 46.1078C44.2282 44.184 39.2252 42.7625 37.4687 41.6638C32.9803 38.8473 29.3771 34.699 26.2174 30.4838C23.2239 26.4891 21.8186 19.4062 16.697 17.5142C14.8823 19.9432 17.2344 23.5178 18.2682 25.6797C19.9737 29.3073 21.0296 33.0771 22.8688 36.4762Z" fill="#CCEA86"/>
<path opacity="0.2" d="M36.1796 16.7055C36.0676 16.7062 35.9767 16.6916 35.8857 16.677C35.8694 16.6856 35.8579 16.6875 35.8416 16.696C35.9641 16.7231 36.0714 16.7291 36.1796 16.7055Z" fill="#CCEA86"/>
<path opacity="0.2" d="M40.9319 19.6912C40.1409 19.2957 39.2751 19.3435 38.7476 18.4679C38.4147 17.9146 38.5993 17.2055 38.0393 16.7426C37.4591 16.2652 36.4506 16.3423 35.8857 16.6771C35.1076 16.5038 35.1911 15.6106 34.6206 15.1199C34.1724 14.7272 33.371 14.6994 32.8758 14.3439C31.7898 13.5542 31.6398 11.8138 30.5727 11.1391C29.4224 10.4248 28.1875 11.4245 27.122 11.2984C26.1704 11.1832 25.7274 10.2465 24.8104 10.0547C23.6915 9.81939 23.0974 10.8024 22.1661 10.6307C20.7121 10.3677 19.5501 9.72623 18.0314 9.68049C17.1179 9.65342 16.3448 9.7981 15.582 10.0414C15.326 9.77652 15.0699 9.51161 14.7995 9.26678C14.124 8.63985 13.1151 8.06768 12.2896 7.67788C12.1997 7.63362 12.0935 7.59793 11.9757 7.56414C11.7861 7.16436 12.0166 6.91402 13.2087 6.94845C14.7752 6.99814 15.9099 7.833 17.2838 8.36295C18.6759 8.89582 20.1774 8.90897 21.6691 9.00636C23.0814 9.08728 24.4818 9.31182 25.8795 9.48368C34.9752 10.5577 41.9757 18.0677 46.9807 25.1084C47.1401 25.3243 47.288 25.542 47.4426 25.7645C46.1718 24.1728 44.6468 22.7941 43.1274 21.4498C42.4336 20.82 41.7545 20.0992 40.9319 19.6912Z" fill="#CCEA86"/>
<path opacity="0.25" d="M24.864 37.4827C25.5133 38.2733 26.2665 38.8343 26.9543 39.5714C27.6706 40.3392 27.7971 41.5049 28.6441 42.1332C29.3352 42.6395 30.3761 42.687 31.1482 42.9675C32.236 43.3733 33.2247 44.0019 34.3259 44.4172C35.3774 44.8171 36.4155 45.2074 37.4959 45.4963C38.1008 45.6567 39.233 46.2972 39.8355 46.2632C40.3325 46.2347 40.6103 46.2009 40.6952 45.5317C40.8794 44.1733 38.9546 43.3796 38.0361 43.0346C36.3139 42.3966 34.3653 42.3565 32.8732 41.2144C31.6793 40.3066 30.8723 38.987 30.0852 37.7527C29.0052 36.0647 27.8737 34.279 26.6863 32.6559C25.5733 31.1268 24.113 30.3218 23.2294 28.5721C22.8339 27.7811 22.3888 27.2993 21.9614 26.6375C21.4795 25.8962 18.4492 18.0117 17.3846 19.1132C16.5053 20.0132 18.9475 24.3522 19.3385 25.4037C20.2092 27.7222 21.5013 30.0187 22.0721 32.416C22.5348 34.3707 23.6007 35.937 24.864 37.4827Z" fill="#CCEA86"/>
<g clip-path="url(#clip0_1802_341)">
<path d="M31.1643 70.8353C33.1767 67.9602 35.7187 65.5962 38.7055 65.1064C41.5652 64.6165 44.785 65.9796 47.3058 67.0657C52.5168 69.3871 55.4401 70.7927 59.7191 74.3494C63.0872 77.1606 66.7518 79.8653 69.3362 83.4858C71.5816 86.5739 72.4077 90.4926 75.2886 93.0909C78.8897 96.3281 79.0168 97.0309 74.992 99.693C62.3669 108.127 53.576 110.64 38.3877 107.999C31.4185 106.764 26.5888 105.443 25.4025 98.1383C24.4705 92.3668 25.1059 85.1683 26.8641 79.6311C27.7538 77.0115 29.1731 73.6678 31.1643 70.8353Z" fill="#FFC40C"/>
<path d="M39.7011 80.7386C37.9005 83.9758 36.5872 87.6815 36.5872 90.2159C36.5448 95.8383 45.6323 97.2865 49.7842 97.1161C55.4825 96.8819 61.5196 96.3281 67.1755 95.5827C65.1419 97.031 62.9177 98.2023 60.5664 99.1181C55.5036 101.12 50.2079 102.653 44.9121 103.378C39.1715 104.166 31.9693 105.124 28.9825 98.5431C26.8641 93.8151 27.3302 89.0658 27.6691 84.0823C28.0292 79.1626 32.0116 73.9661 35.8669 71.1123C36.8202 70.3882 38.0276 70.0048 39.3833 69.7918C46.3737 68.7696 50.6103 72.7096 55.1859 77.3524C56.7323 78.9496 58.0032 80.8664 59.7191 82.272C61.562 83.8054 64.4429 85.5518 66.7095 87.4898C63.0024 86.4888 59.1259 83.6137 55.9697 81.5479C53.3641 79.8441 50.7163 78.0339 47.7506 77.0329C43.5988 75.606 41.7982 77.0755 39.7011 80.7386Z" fill="#FFFA50"/>
<path d="M66.4129 87.298C68.7854 88.6398 72.0264 91.0676 71.0096 93.4955C70.0564 95.7317 65.5232 96.9031 63.4685 97.2864C60.291 97.8827 57.0924 98.0744 53.9149 98.4578C51.3306 98.7772 49.2335 99.5226 46.6068 99.0328C41.6499 98.117 37.5192 97.2012 36.8626 91.7491C36.0152 84.8276 41.9465 72.0279 50.8434 75.6059C54.0208 76.8837 55.1224 79.482 57.3466 81.6543C59.5072 83.784 62.261 85.2535 64.9725 86.51C65.3538 86.723 65.8622 86.9786 66.4129 87.298Z" fill="#FFE62E"/>
<path d="M38.7055 65.1064C41.5652 64.6165 44.785 65.9796 47.3058 67.0657C52.5168 69.3871 55.4401 70.7927 59.7191 74.3494C63.0872 77.1606 66.7518 79.8653 69.3362 83.4858C70.4165 84.9767 71.1791 86.6804 72.0052 88.3416C71.3909 87.4897 70.7766 86.6591 70.0564 85.9776C67.4721 83.4007 64.8454 80.6533 61.7738 78.6727C61.7314 78.6514 61.6891 78.6301 61.6679 78.6088C56.478 73.9447 49.8689 70.0047 44.785 70.5159C36.2271 71.389 29.8298 80.0144 29.2155 88.3842C28.3046 100.396 37.5828 105.017 48.4285 104.314C57.8338 103.718 70.0352 102.27 77.5552 95.9447C77.6611 95.9021 77.7247 95.8808 77.8094 95.8382C78.4237 97.0948 77.5552 97.9892 74.992 99.693C62.3669 108.127 53.576 110.64 38.3877 107.999C31.4185 106.764 26.5888 105.443 25.4025 98.1383C24.4705 92.3668 25.1059 85.1683 26.8641 79.6311C27.7115 77.0115 29.1519 73.6678 31.1219 70.8353C33.1979 67.9602 35.7187 65.5962 38.7055 65.1064Z" fill="#EF9818"/>
<path d="M33.219 81.7821C34.3841 78.9922 36.2694 76.5856 38.7266 74.4559C41.1839 72.2836 43.4928 72.5391 40.9509 75.6272C36.8413 80.6746 34.7654 83.4859 34.9772 90.1306C34.9984 91.8557 36.4812 96.4346 35.3373 97.3291C31.9057 95.9234 31.6515 90.5991 31.8845 87.4897C32.0328 85.4239 32.4776 83.5285 33.219 81.7821Z" fill="white"/>
<path d="M67.6203 91.4084C67.578 91.025 67.4932 90.6417 67.3661 90.3648C66.9425 89.4916 65.9045 88.7462 65.1207 88.2138C64.4005 87.7239 63.4685 87.4045 63.066 86.5952C63.9557 86.1267 65.9892 87.511 66.7095 87.9795C67.7263 88.6397 68.7642 89.3851 69.5268 90.3648C70.0988 91.0889 70.4801 91.9408 70.2894 92.8779C70.0988 93.7511 69.548 94.5391 68.5948 94.0066C67.7898 93.5807 67.7686 92.4093 67.6203 91.4084Z" fill="white"/>
</g>
<g clip-path="url(#clip1_1802_341)">
<path d="M98.42 45.8199C101.34 43.4199 105.27 42.7099 109.01 42.1899C110.29 42.0099 111.61 41.8499 112.86 42.1899C114.85 42.7199 116.54 44.4799 118.6 44.3199C119.17 44.2799 119.77 44.0799 120.3 44.2899C120.99 44.5599 121.28 45.4299 121.14 46.1599C121 46.8899 120.54 47.5099 120.09 48.0999C114.74 55.0799 108.82 62.4599 100.37 64.8899C98.18 65.5199 95.59 65.7699 93.47 64.7599C90.75 63.4699 90.73 61.3799 91.31 58.7299C92.35 53.8699 94.5 49.0499 98.42 45.8199Z" fill="#D5D458"/>
<path opacity="0.62" d="M93.82 64.9099C96.59 64.5299 99.12 63.2199 101.49 61.8099C103.44 60.6499 105.53 59.4499 107.31 58.0499C108.51 57.1099 109.21 55.6899 109.88 54.3199C110.34 53.3799 110.8 52.4399 111.26 51.4899C111.52 50.9599 111.78 50.4199 111.85 49.8299C110.65 50.2699 109.45 50.7099 108.26 51.1499C109.22 50.7999 110.36 49.3499 111.14 48.6699C111.54 48.3299 112.98 47.4799 112.48 46.7399C112.28 46.4399 111.89 46.3399 111.53 46.2899C110.4 46.1199 109.22 46.2399 108.14 46.6299C108.89 45.7599 110.07 45.3999 111.2 45.1999C111.5 45.1499 111.83 45.0899 112.04 44.8599C111.71 44.5599 111.22 44.5099 110.77 44.4899C108.34 44.3799 105.89 44.6399 103.54 45.2499C104.34 44.8499 105.14 44.4599 105.99 44.1899C106.54 44.0199 107.11 43.8999 107.67 43.7799C108.88 43.5299 110.09 43.2799 111.31 43.0299C110.36 42.4699 108.76 42.4899 107.71 42.6799C106.9 42.8299 106 42.6599 105.21 42.8299C106.46 42.5599 107.74 42.3599 109 42.1899C110.28 42.0099 111.6 41.8499 112.85 42.1899C114.84 42.7199 116.53 44.4799 118.59 44.3199C119.16 44.2799 119.76 44.0799 120.29 44.2899C120.98 44.5599 121.27 45.4299 121.13 46.1599C121 46.8899 120.54 47.5099 120.09 48.0999C114.74 55.0799 108.82 62.4599 100.37 64.8899C98.3 65.4799 95.87 65.7299 93.82 64.9099Z" fill="#BFB939"/>
<path opacity="0.62" d="M117.05 48.3598C116.13 46.8198 116.65 45.5298 116.99 44.0798C117.51 44.2598 118.04 44.3598 118.6 44.3198C119.17 44.2798 119.77 44.0798 120.3 44.2898C120.99 44.5598 121.28 45.4298 121.14 46.1598C121 46.8898 120.54 47.5098 120.09 48.0998C119.59 48.7598 119.07 49.4198 118.56 50.0798C118.01 49.5498 117.45 49.0398 117.05 48.3598Z" fill="#FFEC9C"/>
<path opacity="0.68" d="M116.98 48.6098C117 48.4998 117.01 48.3898 117.01 48.2698C118.06 48.7198 119.19 47.8898 119.44 46.8298C119.61 46.1198 119.85 45.3898 119.47 44.7598C119.49 44.6198 119.17 44.3898 119.14 44.2498C119.54 44.1898 119.94 44.1498 120.31 44.2898C121 44.5598 121.29 45.4298 121.15 46.1598C121 46.8898 120.54 47.5098 120.09 48.0998C119.52 48.8398 118.95 49.5898 118.36 50.3298C117.55 49.9098 116.84 49.3198 116.98 48.6098Z" fill="#E8B769"/>
<path opacity="0.44" d="M99.76 47.7599C101.47 46.5799 103.37 45.6499 105.39 45.1799C107.95 44.5799 110.72 44.7399 113.09 45.8799C114.39 46.4999 115.63 47.5599 115.83 48.9799C116.18 51.5399 114.61 53.2399 113.17 55.0499C111.43 57.2499 109.17 59.0099 106.71 60.3599C103.58 62.0699 100.13 63.1299 96.65 63.9299C95.34 64.2299 93.72 64.3999 92.88 63.3399C92.3 62.6099 92.35 61.5699 92.49 60.6499C93.23 55.6799 95.58 50.6499 99.76 47.7599Z" fill="#E5DF6E"/>
<path opacity="0.65" d="M118.37 50.0699C118.4 50.0299 118.42 49.9999 118.45 49.9699C119.06 49.1099 119.96 47.5299 120.17 46.4899C120.4 45.3599 120.23 44.5299 119.34 44.2299C119.67 44.1899 120 44.1699 120.3 44.2899C120.99 44.5599 121.28 45.4299 121.14 46.1599C121 46.8899 120.54 47.5099 120.09 48.0999C119.55 48.7999 119 49.5099 118.45 50.2099C118.42 50.1599 118.4 50.1099 118.37 50.0699Z" fill="#A57329"/>
<path d="M96.87 61.87C96.71 61.9399 96.55 62.0099 96.39 62.0899C95.62 62.4499 94.44 63.0499 93.58 62.7299C92.57 62.3499 92.96 60.0899 93.14 59.1799C93.67 56.4099 95.45 54.2999 97.24 52.5299C98.17 51.5999 99.33 50.8999 100.61 50.8199C101.14 50.7899 101.68 50.8599 102.21 50.7999C103.32 50.6799 104.3 49.8999 105.42 49.8699C106.1 49.8499 107.06 49.9499 107.72 50.1399C108.27 50.2999 108.81 50.7299 108.98 51.3399C109.16 51.9699 108.92 52.6199 108.66 53.1699C106.92 56.8499 103.83 59.5899 100.24 60.6399C99.04 60.9899 97.98 61.37 96.87 61.87Z" fill="#E5DF6E"/>
<path opacity="0.77" d="M93.46 64.7599C92.7 64.3999 92.15 63.9699 91.77 63.4899C92.24 64.0799 94.28 63.6999 94.9 63.6399C96.34 63.4899 97.75 63.1599 99.12 62.7099C104.07 61.0899 110.01 58.3799 112.18 53.2999C111.75 53.5299 111.32 53.7599 110.89 53.9899C111.78 52.4699 112.82 51.0299 114.01 49.7299C114.18 49.5499 114.33 49.2199 114.12 49.0899C114.06 49.0499 113.98 49.0499 113.91 49.0199C113.66 48.9099 113.71 48.5499 113.67 48.2799C113.44 46.7799 106.97 48.3099 106.09 48.9599C107.42 47.9699 108.97 47.2899 110.6 46.9799C111.5 46.8099 112.41 46.7499 113.3 46.5499C113.43 46.5199 113.57 46.4799 113.66 46.3899C113.83 46.1999 113.73 45.8699 113.53 45.7199C113.37 45.6099 111.92 45.1899 111.8 45.2699C112.32 44.9399 112.88 44.6799 113.46 44.4999C113.04 44.4499 112.65 44.2799 112.33 43.9999C113.07 43.9599 113.81 43.8199 114.52 43.6099C113.57 43.0299 112.5 42.6499 111.39 42.4899C110.91 42.4199 110.41 42.5099 109.95 42.4499C109.65 42.4099 109.32 42.1699 109.01 42.2099C110.29 42.0299 111.61 41.8699 112.86 42.2099C114.44 42.6299 115.83 43.8199 117.37 44.2199C116.88 44.9099 116.62 45.7899 116.6 46.6199C116.57 48.0099 117.54 49.5699 119.05 49.4499C113.97 56.0099 108.27 62.6299 100.36 64.8999C98.18 65.5199 95.59 65.7599 93.46 64.7599Z" fill="#B9BC37"/>
<path opacity="0.68" d="M93.46 64.7598C93.15 64.6098 92.89 64.4498 92.65 64.2898C98.46 66.4298 104.69 63.0098 109.15 59.2698C110.48 58.1598 111.77 56.9798 112.95 55.7098C114.51 54.0298 115.55 52.1398 116.77 50.2298C115.29 50.1498 113.96 51.0898 112.78 51.9798C113.43 51.0098 114.56 50.4898 115.38 49.6698C115.58 49.4698 115.78 49.1698 115.66 48.9098C115.47 48.4998 114.72 48.6098 114.6 48.1798C114.86 47.9598 115.12 47.7398 115.38 47.5198C115.25 47.3698 115.07 47.2698 114.88 47.2498C115.07 46.6998 115.93 46.5198 115.95 45.9398C115.96 45.5598 115.59 45.2898 115.23 45.1698C114.87 45.0498 114.47 44.9798 114.22 44.7098C114.85 44.5998 115.49 44.5898 116.12 44.6998C115.8 44.6498 115.27 43.2698 114.84 43.0398C115.69 43.4898 116.52 43.9798 117.39 44.1998C116.9 44.8898 116.64 45.7698 116.62 46.5998C116.59 47.9898 117.56 49.5498 119.07 49.4298C113.99 55.9898 108.29 62.6098 100.38 64.8798C98.18 65.5198 95.59 65.7598 93.46 64.7598Z" fill="#A29720"/>
<path opacity="0.75" d="M93.46 64.7598C93.15 64.6098 92.89 64.4498 92.65 64.2898C98.46 66.4298 104.69 63.0098 109.15 59.2698C111.63 57.1898 113.77 55.3798 115.41 52.5498C115.95 51.6298 116.48 50.7098 117.02 49.7898C117.06 49.7198 117.11 49.6398 117.12 49.5498C117.15 49.3398 116.94 49.1498 116.73 49.1098C116.52 49.0698 116.3 49.1398 116.1 49.2098C116.32 49.0598 116.55 48.8998 116.68 48.6698C116.81 48.4398 116.81 48.1098 116.6 47.9398C116.44 47.8098 116.22 47.8098 116.02 47.8098C115.33 47.8198 114.64 47.8198 113.95 47.8298C114.75 47.4998 115.55 47.1698 116.35 46.8398C116.11 46.6098 116.15 46.2198 116.15 45.8898C116.15 45.5498 116 45.1298 115.67 45.1198C115.97 45.0098 116.26 44.8998 116.56 44.7898C116.42 44.4598 116.27 44.1598 116.24 43.8098C116.34 43.8498 117.31 44.2898 117.36 44.2098C116.87 44.8998 116.61 45.7798 116.59 46.6098C116.56 47.9998 117.53 49.5598 119.04 49.4398C113.96 55.9998 108.26 62.6198 100.35 64.8898C98.18 65.5198 95.59 65.7598 93.46 64.7598Z" fill="#8A720B"/>
<path opacity="0.42" d="M118.95 45.7099C119.09 45.7099 119.23 45.7099 119.35 45.7699C119.47 45.8199 119.58 45.9499 119.57 46.0799C119.57 46.1599 119.53 46.2299 119.49 46.2899C119.16 46.8399 118.76 47.3499 118.3 47.7899C118.06 48.0199 117.73 48.2399 117.43 48.1099C117.19 48.0099 117.09 47.7199 117.05 47.4599C117 47.1999 117 46.9199 117 46.6499C117 46.1099 117 45.3099 117.5 44.9399C118.17 44.4499 118.98 44.8999 118.95 45.7099Z" fill="#FFF69E"/>
<path d="M118.35 45.26C118.46 45.24 118.62 45.25 118.64 45.36C118.66 45.44 118.58 45.52 118.59 45.6C118.6 45.72 118.78 45.78 118.79 45.9C118.8 45.96 118.75 46.02 118.71 46.07C118.42 46.42 118.11 46.75 117.78 47.07C117.62 47.23 117.38 47.38 117.2 47.25C117.12 47.19 117.08 47.08 117.06 46.97C116.89 45.98 117.41 45.42 118.35 45.26Z" fill="#FBEF95"/>
<path opacity="0.34" d="M95.28 52.7298C96.28 51.3098 97.55 50.0498 99.13 49.3198C97.28 51.0498 95.69 53.0498 94.38 55.2098C94.21 55.4998 94.04 55.7798 93.88 56.0698C93.74 56.3298 93.52 56.5398 93.39 56.7898C92.97 57.6198 92.64 58.4898 92.4 59.3898C92.35 59.5798 92.3 59.7698 92.19 59.9198C92.28 59.7898 92.22 59.2398 92.25 59.0598C92.3 58.7298 92.38 58.3998 92.48 58.0798C92.68 57.4898 93.05 56.9998 93.28 56.4398C93.81 55.1498 94.47 53.8898 95.28 52.7298Z" fill="#BFB939"/>
<path opacity="0.34" d="M99.25 46.35C100.56 45.22 102.11 44.31 103.81 43.98C101.6 45.21 99.57 46.75 97.77 48.53C97.53 48.77 97.3 49 97.07 49.25C96.87 49.46 96.6 49.61 96.42 49.82C95.81 50.52 95.28 51.29 94.82 52.1C94.73 52.27 94.63 52.44 94.49 52.56C94.61 52.46 94.69 51.91 94.75 51.74C94.88 51.43 95.03 51.13 95.21 50.85C95.55 50.33 96.03 49.95 96.39 49.45C97.24 48.33 98.18 47.27 99.25 46.35Z" fill="#BFB939"/>
<path opacity="0.34" d="M94.17 57.3399C94.97 56.3199 95.98 55.4199 97.19 54.9199C95.74 56.1499 94.46 57.5799 93.4 59.1499C93.27 59.3499 93.13 59.5599 93 59.7699C92.88 59.9599 92.71 60.1099 92.61 60.2899C92.27 60.8899 91.99 61.5299 91.78 62.1799C91.74 62.3199 91.69 62.4499 91.6 62.5699C91.67 62.4799 91.64 62.0699 91.67 61.9399C91.72 61.6999 91.79 61.4599 91.88 61.2299C92.05 60.7999 92.35 60.4499 92.54 60.0399C92.98 59.0799 93.52 58.1699 94.17 57.3399Z" fill="#BFB939"/>
<path opacity="0.34" d="M107.91 56.3499C107 57.3999 105.88 58.3099 104.56 58.7699C106.18 57.5299 107.62 56.0599 108.84 54.4399C109 54.2299 109.16 54.0099 109.31 53.7899C109.44 53.5899 109.64 53.4399 109.76 53.2599C110.16 52.6299 110.49 51.9599 110.76 51.2699C110.81 51.1299 110.87 50.9799 110.97 50.8599C110.88 50.9599 110.89 51.3999 110.86 51.5399C110.8 51.7999 110.71 52.0499 110.6 52.2999C110.4 52.7599 110.06 53.1099 109.83 53.5499C109.28 54.5399 108.65 55.4899 107.91 56.3499Z" fill="#BFB939"/>
</g>
<g clip-path="url(#clip2_1802_341)" filter="url(#filter0_f_1802_341)">
<path d="M152.043 112.194C150.165 112.172 148.339 112.199 146.46 112.092C145.003 112.01 143.713 112.718 142.277 112.555C140.423 112.342 140.583 111.33 140.246 109.494C139.836 107.29 139.541 105.081 139.134 102.891C138.587 99.9427 138.709 96.7552 139.506 93.858C141.073 88.1546 144.335 83.1871 148.556 79.063C156.443 71.3652 168.325 66.7123 179.285 66.1633C181.718 66.0369 185.224 65.7219 187.254 64.2017C188.688 63.131 190.279 60.5825 190.221 63.802C190.182 65.7043 189.184 67.0931 188.56 68.7681C187.932 70.4652 187.937 72.2879 187.839 74.1C187.76 75.8155 187.507 77.5185 187.317 79.2175C186.139 90.2731 177.119 98.8739 168.641 105.046C163.665 108.678 158.414 112.251 152.043 112.194Z" fill="#78AF02"/>
<path opacity="0.42" d="M139.497 105.074C139.384 104.347 139.262 103.615 139.129 102.899C138.582 99.9509 138.703 96.7634 139.5 93.8662C141.067 88.1628 144.329 83.1952 148.551 79.0712C156.443 71.3652 168.325 66.7123 179.285 66.1632C181.718 66.0369 185.224 65.7219 187.254 64.2017C188.688 63.131 190.279 60.5825 190.221 63.802C190.195 65.2496 189.602 66.4093 189.053 67.6116C187.007 69.6945 184.292 70.7104 181.964 72.6204C181.011 73.4054 180.168 74.243 179.136 74.9486C178.879 75.123 175.773 76.5237 175.824 76.364C176.524 74.3024 177.912 72.9309 179.51 71.5228C180.883 70.3119 183.561 68.6349 183.946 66.7435C180.058 64.9217 176.711 70.7945 174.429 72.761C175.193 70.8174 177.086 69.5798 177.987 67.7199C176.859 68.3705 175.11 67.8165 173.798 68.399C172.461 69.0004 171.685 70.0199 171.195 71.3984C170.407 73.5689 169.754 75.6149 169.438 77.7742C169.101 80.0662 169.873 82.5367 168.32 84.5257C166.683 83.0116 168.049 78.7794 168.485 77.0085C168.73 75.9961 171.139 68.3426 171.481 68.4116C164.989 67.1339 162.332 76.5183 162.337 81.0405C162.344 82.547 162.494 84.057 162.551 85.5619C162.58 86.3394 162.097 88.9803 162.455 89.5491C159.736 85.2744 160.56 79.2207 162.204 74.7315C162.581 73.6888 163.079 72.6462 163.123 71.5903C158.344 69.5591 157.153 76.467 156.9 79.4767C156.695 81.9465 155.985 84.4767 156.135 86.9632C156.24 88.7467 157.25 90.4071 157.487 92.1604C155.874 90.1753 155.323 87.0414 155.206 84.5418C155.074 81.5425 156.578 78.4205 156.07 75.4513C153.995 74.7177 151.034 79.1874 150.322 80.6911C148.939 83.6051 149.139 87.6407 149.126 90.7948C149.124 92.5758 149.935 94.2925 150.521 95.9485C150.867 96.9359 151.059 99.9033 151.628 100.571C150.332 99.0402 149.667 96.6444 149.226 94.7116C148.945 93.476 148.682 92.2298 148.54 90.9697C148.422 89.849 148.848 88.2304 148.566 87.2029C147.783 84.3827 145.759 86.1388 145.313 88.0121C144.348 92.1593 144.345 96.0654 145.148 100.182C144.752 98.1334 143.823 96.4804 143.726 94.1783C143.638 91.882 144.449 89.7148 143.971 87.3649C141.371 87.5207 140.706 96.3967 140.55 98.2047C140.374 100.303 140.695 102.336 141.346 104.318C141.693 105.356 142.88 107.164 143.179 108.497C143.259 108.871 143.274 109.199 143.176 109.46C143.078 109.721 140.154 106.28 139.926 105.839C139.787 105.583 139.641 105.322 139.497 105.074Z" fill="#A3CE24"/>
<path opacity="0.42" d="M139.5 93.8662C141.067 88.1628 144.329 83.1952 148.551 79.0712C156.443 71.3652 168.325 66.7123 179.285 66.1632C181.718 66.0368 185.224 65.7218 187.254 64.2017C188.688 63.131 190.279 60.5824 190.221 63.802C190.189 65.6239 189.27 66.9702 188.651 68.551C187.606 69.9193 186.434 71.0516 184.722 71.647C184.594 71.6912 184.451 71.7378 184.314 71.7762C181.37 72.6314 182.06 70.4281 181.333 68.6245C180.193 65.7738 177.493 69.0344 176.545 70.6657C175.764 72.0236 175.659 74.7344 174.223 75.511C172.62 73.3735 174.569 70.5753 175.244 68.3744C170.848 67.6255 169.773 74.6998 169.948 77.8998C170.144 81.7495 168.016 79.0006 167.324 76.9398C166.875 75.6116 166.768 74.4744 166.845 73.0752C166.899 72.075 167.302 70.6112 166.992 69.7467C165.047 71.9125 163.736 74.2179 162.968 77.1961C162.557 78.7402 162.094 80.8822 162.047 82.5345C162.01 83.9985 162.706 85.6709 161.935 86.9985C160.166 86.6992 159.647 82.1956 159.577 80.7791C159.402 77.371 160.045 74.867 160.999 71.6767C159.656 71.7119 158.14 73.5437 157.43 74.6091C156.409 76.1527 156.418 78.1254 156.144 79.9112C155.815 82.0009 155.469 84.2011 155.681 86.3034C155.812 87.5798 157.293 90.6078 156.695 91.6175C154.99 90.9481 153.773 87.8236 153.156 86.2307C152.054 83.3947 152.226 79.9253 153.338 77.1021C152.197 77.1448 150.697 79.8065 150.176 80.7597C147.509 85.6801 148.715 91.3122 150.413 96.4342C150.827 97.6895 151.786 99.1434 149.689 98.4426C148.544 98.0552 147.833 96.9956 147.365 95.886C145.917 92.5509 146.93 88.7544 146.58 85.2978C145.836 86.9867 144.936 89.0547 144.79 90.9184C143.682 94.0496 145.612 97.7955 144.571 100.779C143.055 98.9344 142.688 96.723 142.851 94.3826C142.953 92.8425 144.079 90.8352 143.684 89.3251C143.29 87.779 142.413 88.0554 141.612 89.3018C140.251 91.4007 140.914 94.515 140.479 96.8602C140.285 97.921 140.586 98.3636 139.255 97.9442C139.126 97.9023 138.992 97.8326 138.869 97.7465C138.947 96.4333 139.155 95.1259 139.5 93.8662Z" fill="#A3CE24"/>
<path opacity="0.42" d="M144.873 90.6955C144.843 90.7725 144.828 90.8471 144.798 90.9241C144.8 90.974 144.782 91.0347 144.783 91.0846C144.839 90.9528 144.867 90.8258 144.873 90.6955Z" fill="#A3CE24"/>
<path d="M139.129 102.899C138.582 99.951 138.703 96.7634 139.5 93.8662C139.634 93.3617 139.812 92.8637 139.97 92.3763C139.84 92.9808 139.721 93.569 139.661 94.0892C139.34 96.7949 139.395 100.863 141.056 103.163C141.443 103.691 141.925 104.101 142.492 104.389C144.445 105.367 145.058 102.646 145.158 101.3C145.304 99.1061 144.519 96.8462 144.211 94.689C143.845 92.0755 144.292 87.6388 146.022 84.8216C144.438 89.2429 143.583 99.976 149.128 101.298C149.391 101.36 149.714 101.281 149.807 100.992C150.614 98.1507 149.404 95.5563 149.054 92.7101C148.712 89.9917 149.45 82.266 150.002 81.0776C149.541 85.2726 150.02 90.4078 151.93 93.7981C153.084 95.828 155.568 94.3573 156.168 92.6651C157.008 90.3349 155.742 87.7503 155.857 85.3033C155.977 82.518 156.23 79.7884 156.784 77.0632C156.923 76.3423 157.211 75.6527 157.466 74.9401C157.944 73.6141 158.602 72.2922 159.937 71.6769C158.158 73.6052 157.895 76.315 157.674 78.7734C157.442 81.4563 157.202 84.1334 158.697 86.5485C159.21 87.3845 160.721 89.9331 162.051 89.0459C163.214 88.274 162.738 84.7895 162.652 83.6057C162.44 81.0152 162.815 78.7379 163.232 76.2092C163.604 73.9541 164.348 72.2652 165.968 70.5802C164.332 73.5244 163.944 76.8666 164.238 80.1749C164.379 81.7511 165.377 85.2589 167.711 83.793C169.659 82.5816 169.031 79.2961 169.016 77.4176C168.973 74.6036 170.573 71.5725 171.882 69.1811C171.649 70.7514 170.91 72.224 170.892 73.8354C170.889 74.6759 170.857 76.4119 171.299 77.088C172.287 78.5869 172.783 76.8341 173.109 75.9511C174.025 73.4424 175.249 71.504 176.936 69.4626C178.309 67.7995 179.945 66.8944 181.977 66.2427C179.75 67.0508 178.731 68.8885 177.514 70.7467C176.622 72.1241 175.263 73.8707 176.249 75.5999C176.468 75.985 176.899 76.0672 176.995 76.4523C177.173 77.1389 176.572 77.7186 176.216 78.2263C175.883 78.7013 175.749 79.2058 175.455 79.6956C174.702 80.9264 173.161 80.86 172.017 81.4992C170.777 82.2054 169.818 83.3649 168.807 84.354C167.538 85.5894 166.253 86.8134 164.982 88.035C162.482 90.4347 159.951 92.8254 157.454 95.2391C154.1 98.4567 150.697 101.604 147.173 104.629C144.684 106.768 143.3 108.289 142.391 111.364C142.304 111.645 142.197 112.059 142.05 112.53C140.481 112.26 140.585 111.258 140.264 109.52C139.831 107.299 139.535 105.089 139.129 102.899Z" fill="#6D9E02"/>
<path d="M145.103 104.045C146.551 102.031 148.269 100.207 149.867 98.3108C153.39 94.1372 156.97 89.5877 161.239 86.1445C165.627 82.6014 169.888 79.0664 174.534 75.8512C178.888 72.8455 183.891 69.6968 187.431 65.7788C188.183 64.9502 188.863 63.7177 189.325 62.7103C189.378 62.6005 189.42 62.4711 189.459 62.3278C189.942 62.0921 190.249 62.3684 190.223 63.8159C190.184 65.7182 189.187 67.107 188.562 68.782C187.935 70.4791 187.939 72.3019 187.841 74.1139C187.763 75.8294 187.509 77.5324 187.32 79.2314C186.141 90.2871 177.121 98.8878 168.644 105.06C163.66 108.686 158.408 112.259 152.043 112.194C150.165 112.172 148.339 112.199 146.46 112.092C145.003 112.01 143.713 112.718 142.277 112.554C141.508 112.467 141.094 112.238 140.842 111.866C141.905 109.131 143.262 106.602 145.103 104.045Z" fill="#61A304"/>
<path opacity="0.6" d="M187.429 65.765C188.18 64.9363 188.861 63.7038 189.323 62.6964C189.375 62.5866 189.417 62.4572 189.456 62.3139C189.939 62.0782 190.246 62.3545 190.221 63.8021C190.223 63.938 190.203 64.0708 190.189 64.1953C190.102 64.1461 190.003 64.1132 189.889 64.1189C189.319 64.1472 188.76 65.1718 188.467 65.5894C187.971 66.2797 187.37 66.7373 186.73 67.2662C184.484 69.1475 182.06 70.7583 179.808 72.6478C178.631 73.6302 174.056 75.9066 173.904 77.5344C173.776 79.0073 175.479 78.2841 176.597 77.9439C177.885 77.5522 178.584 76.8334 179.73 76.2442C180.962 75.6182 182.319 75.2503 183.464 74.4531C184.832 73.4945 185.844 72.4334 187.044 71.3322C186.338 73.2799 183.484 74.7726 181.8 75.8513C179.426 77.3746 177.027 78.5143 174.333 79.2394C172.142 79.8403 170.306 80.2636 168.613 81.8609C168.329 82.1262 167.584 82.5444 167.832 82.9746C168.179 83.5598 169.486 83.1935 170.037 83.2618C171.151 83.4321 172.166 83.6915 173.327 83.7241C175.362 83.7827 177.441 83.5176 179.473 83.4402C181.234 83.3675 183.246 82.8484 184.782 81.9465C181.202 84.0409 177.7 85.1161 173.504 84.813C172.158 84.7123 170.754 84.8516 169.418 84.6845C168.052 84.5084 166.654 84.3593 165.366 84.9951C164.165 85.594 163.096 86.701 162.07 87.6065C160.652 88.8468 161.257 89.4296 162.873 89.8418C165.633 90.5553 168.446 90.2186 171.189 90.7126C173.695 91.1622 176.556 90.2856 179.054 89.9971C181.09 89.7754 182.849 89.1645 184.461 88.3282C184.429 88.3912 184.397 88.4543 184.365 88.5173C184.328 88.5886 184.29 88.6598 184.238 88.7335C181.056 91.4614 176.57 91.7119 172.442 92.2871C171.998 92.2934 171.546 92.2939 171.094 92.2945C168.357 92.2445 165.577 92.152 162.834 92.3183C160.923 92.4319 158.909 92.2046 157.708 93.9882C157.265 94.6548 156.783 95.6729 157.389 96.3417C157.673 96.6507 158.287 96.8731 158.669 97.0068C162.249 98.2583 166.292 97.892 170.017 98.0481C172.353 98.147 174.722 98.1467 177.074 97.9629C177.056 97.9875 177.031 98.0063 177.006 98.0252C177 98.0334 176.994 98.0415 176.98 98.044C174.646 99.5099 171.803 99.4714 169.14 99.5952C167.765 99.6574 166.274 99.8335 164.895 99.7098C163.627 99.6026 162.369 99.5511 161.103 99.4578C159.234 99.3199 157.494 99.1018 155.623 99.158C153.172 99.223 149.251 99.9555 148.826 102.967C148.547 104.933 152.053 105.924 153.409 106.411C156.499 107.526 160.36 107.314 163.615 107.165C164.348 107.129 165.079 107.08 165.807 107.016C165.486 107.231 165.159 107.453 164.843 107.66C164.071 108.169 162.56 108.147 161.648 108.351C160.376 108.632 158.966 108.205 157.649 108.149C155.066 108.037 151.81 107.891 149.406 106.878C148.359 106.438 144.719 105.254 145.251 107.702C145.8 110.212 149.337 111.629 151.811 112.141C150.013 112.127 148.243 112.144 146.431 112.047C144.974 111.965 143.684 112.673 142.248 112.509C141.479 112.422 141.065 112.193 140.813 111.821C141.754 109.416 142.932 107.177 144.441 104.937C146.038 102.832 147.701 100.774 149.407 98.7579C149.549 98.5892 149.692 98.4205 149.835 98.2519C150.031 98.0234 150.22 97.7892 150.417 97.5608C151.067 96.8075 151.715 96.0402 152.373 95.2926C154.756 92.5545 157.168 89.6534 159.896 87.2063C160.324 86.8223 160.76 86.4441 161.207 86.0855C165.595 82.5424 169.856 79.0075 174.503 75.7922C177.012 74.0585 179.799 72.3119 182.31 70.2981C184.187 68.9269 185.939 67.4198 187.429 65.765Z" fill="#468E02"/>
<path opacity="0.31" d="M147.715 108.245C148.714 107.309 153.044 108.622 154.227 108.816C158.845 109.598 162.7 109.394 166.259 105.953C167.338 104.902 168.025 103.991 166.343 103.289C164.236 102.41 159.365 102.966 157.12 103.138C156.036 103.221 149.933 104.036 151.227 101.475C151.919 100.104 155.61 100.309 156.861 100.197C159.76 99.9453 162.551 99.8494 165.474 100.262C167.263 100.514 170.325 101.598 172.056 100.992C174.188 100.251 177.049 95.3324 173.149 95.2859C170.357 95.2458 167.616 95.34 164.821 95.1639C163.871 95.1084 158.006 95.1132 159.152 93.6696C159.938 92.6698 163.464 92.9184 164.646 92.7823C167.667 92.4449 170.965 92.1306 173.997 92.265C175.892 92.3481 178.996 92.7284 179.928 90.4752C180.634 88.7716 179.013 88.4176 177.749 88.1662C174.573 87.5401 169.879 88.9398 167.04 87.0843C164.767 85.5887 167.816 85.3324 169.275 85.1333C171.356 84.8462 173.459 84.8785 175.56 84.8249C177.273 84.7677 182.031 84.8786 181.788 82.107C180.178 81.7726 175.226 83.3329 174.46 81.0623C174.009 79.7202 177.182 79.636 177.94 79.3734C180.244 78.5949 185.058 76.4128 185.512 73.7268C183.003 72.2368 180.299 77.2784 177.688 76.0218C178.544 74.0332 180.428 72.826 182.059 71.5268C183.552 70.3381 185.045 68.6612 186.28 66.9505C186.678 66.5575 187.061 66.167 187.434 65.7568C188.186 64.9282 188.867 63.6956 189.328 62.6882C189.381 62.5785 189.423 62.4491 189.462 62.3057C189.945 62.0701 190.252 62.3463 190.227 63.7939C190.188 65.6961 189.19 67.085 188.566 68.7599C187.938 70.457 187.942 72.2798 187.845 74.0919C187.766 75.8073 187.513 77.5103 187.323 79.2093C186.144 90.265 177.125 98.8658 168.647 105.038C164.459 108.086 160.083 111.089 155.012 111.93C154.361 111.779 153.83 111.334 153.571 110.31C152.445 110.888 146.127 109.745 147.715 108.245Z" fill="#A3CE24"/>
<path d="M182.63 70.1196C182.788 69.9985 182.947 69.8773 183.097 69.7504C181.554 71.7951 178.547 73.6809 176.609 75.156C175.008 76.3782 172.037 77.4464 170.842 79.0637C172.592 79.4235 175.442 78.3192 177.085 77.578C175.34 79.0049 173.249 79.6025 171.097 80.146C169.085 80.6651 166.83 81.234 165.932 83.3159C167.39 84.7037 170.218 83.9263 172.014 84.3787C169.264 85.1136 165.276 84.4436 164.198 84.7625C162.662 85.2122 159.17 89.4448 158.735 91.0936C159.672 91.3596 160.883 90.8163 161.886 90.762C162.917 90.7028 163.967 90.8771 164.983 90.7343C162.768 91.6121 160.789 91.6298 158.521 92.079C156.126 92.5503 154.357 94.5343 152.933 96.3571C155.641 98.6091 159.981 97.2787 162.904 98.8755C161.244 99.7273 158.517 98.8787 156.733 98.776C154.827 98.6733 152.94 98.56 151.107 99.3634C149.694 99.9852 147.878 101.252 147.938 102.979C147.99 104.787 150.709 106.448 152.193 107.048C150.061 106.971 147.491 104.436 145.346 105.51C143.637 106.364 143.417 108.053 144.315 109.647C145.127 111.084 146.637 111.544 148.072 112.11C147.531 112.097 146.985 112.093 146.433 112.06C144.976 111.979 143.686 112.687 142.25 112.523C141.481 112.436 141.067 112.207 140.815 111.835C141.449 110.216 142.204 108.669 143.072 107.152C146.243 103.342 149.143 99.2566 152.271 95.3679C155.031 92.0754 157.915 88.7608 161.218 86.1051C165.606 82.562 169.866 79.0271 174.513 75.8118C177.003 74.0888 179.699 72.3151 182.225 70.3848C182.379 70.3218 182.511 70.2195 182.63 70.1196Z" fill="#4A8209"/>
<path opacity="0.24" d="M154.517 75.9256C152.541 77.0198 150.676 78.3385 148.993 80.0776C144.124 85.0909 138.785 96.0884 143.129 102.906C145.454 101.959 147.111 95.8663 148.42 93.7191C151.777 88.2322 156.763 83.8014 161.836 79.9081C166.644 76.2194 175.223 74.4164 177.449 68.1735C174.475 66.004 170.169 68.9082 167.559 70.1929C163.179 72.3129 158.617 73.6465 154.517 75.9256Z" fill="#CCEA86"/>
<path opacity="0.2" d="M178.698 91.8114C178.696 91.6755 178.712 91.5649 178.729 91.4543C178.718 91.4346 178.716 91.4207 178.705 91.401C178.674 91.5501 178.668 91.6804 178.698 91.8114Z" fill="#CCEA86"/>
<path opacity="0.2" d="M175.14 97.6209C175.609 96.6553 175.539 95.605 176.594 94.9527C177.262 94.541 178.125 94.7553 178.679 94.0691C179.25 93.3584 179.143 92.1352 178.729 91.4542C178.929 90.5072 180.014 90.5964 180.602 89.8971C181.072 89.3476 181.095 88.3744 181.52 87.7684C182.463 86.4394 184.574 86.2333 185.378 84.9287C186.229 83.5226 184.999 82.0375 185.137 80.7423C185.264 79.5856 186.395 79.035 186.615 77.9193C186.886 76.5579 185.684 75.8502 185.88 74.7173C186.179 72.9488 186.942 71.5295 186.976 69.6854C186.997 68.5762 186.811 67.6397 186.505 66.7171C186.823 66.4027 187.141 66.0883 187.434 65.7566C188.186 64.928 188.867 63.6955 189.328 62.6881C189.381 62.5783 189.423 62.4489 189.462 62.3056C189.945 62.0699 190.252 62.3462 190.227 63.7937C190.188 65.696 189.19 67.0848 188.566 68.7598C187.938 70.4569 187.942 72.2797 187.845 74.0917C187.766 75.8072 187.513 77.5102 187.323 79.2092C186.144 90.2649 177.125 98.8656 168.647 105.038C168.387 105.234 168.125 105.417 167.857 105.607C169.771 104.043 171.424 102.173 173.035 100.31C173.79 99.4593 174.656 98.625 175.14 97.6209Z" fill="#CCEA86"/>
<path opacity="0.25" d="M153.322 78.3613C152.372 79.1603 151.701 80.0824 150.816 80.9273C149.893 81.8075 148.48 81.9771 147.729 83.0138C147.124 83.8597 147.081 85.1237 146.751 86.0648C146.273 87.3909 145.524 88.5996 145.035 89.9421C144.564 91.2239 144.104 92.4893 143.768 93.8048C143.582 94.5412 142.82 95.9245 142.87 96.6552C142.911 97.2582 142.956 97.595 143.769 97.6888C145.421 97.8938 146.358 95.5464 146.764 94.4267C147.515 92.3275 147.537 89.9616 148.903 88.1346C149.988 86.6729 151.579 85.6752 153.066 84.7028C155.1 83.3687 157.252 81.9707 159.206 80.507C161.047 79.1351 162.004 77.3513 164.116 76.2548C165.071 75.7638 165.649 75.2169 166.447 74.689C167.34 74.0939 176.869 70.3072 175.517 69.0301C174.413 67.9751 169.18 70.9991 167.909 71.4882C165.106 72.577 162.336 74.177 159.434 74.9028C157.068 75.4913 155.181 76.8067 153.322 78.3613Z" fill="#CCEA86"/>
</g>
<defs>
<filter id="filter0_f_1802_341" x="126" y="44" width="76.7069" height="84.8445" filterUnits="userSpaceOnUse" color-interpolation-filters="sRGB">
<feFlood flood-opacity="0" result="BackgroundImageFix"/>
<feBlend mode="normal" in="SourceGraphic" in2="BackgroundImageFix" result="shape"/>
<feGaussianBlur stdDeviation="2" result="effect1_foregroundBlur_1802_341"/>
</filter>
<clipPath id="clip0_1802_341">
<rect width="53" height="44" fill="white" transform="translate(25 65)"/>
</clipPath>
<clipPath id="clip1_1802_341">
<rect width="30.18" height="23.44" fill="white" transform="translate(91 42)"/>
</clipPath>
<clipPath id="clip2_1802_341">
<rect width="68.86" height="35.64" fill="white" transform="translate(130 104.389) rotate(-54.9747)"/>
</clipPath>
</defs>
</svg>
