<svg width="21" height="23" viewBox="0 0 21 23" fill="none" xmlns="http://www.w3.org/2000/svg">
<path d="M20.816 21.8608C20.9232 21.6944 20.9603 21.4924 20.9192 21.2987C20.8781 21.1051 20.7621 20.9356 20.5966 20.8272C19.7856 20.3009 18.8447 19.6847 17.8331 18.9895C18.227 17.4072 18.4812 15.7933 18.5928 14.1665C18.7548 11.2922 18.2621 8.98172 17.1259 7.1681C14.9142 3.66443 10.6997 2.80364 7.30886 2.10942C5.22383 1.68404 3.25725 1.28785 2.45244 0.386476C2.35774 0.281063 2.23511 0.204669 2.09877 0.166155C1.96243 0.127639 1.81797 0.128582 1.68214 0.168873C1.54631 0.209163 1.42468 0.287151 1.33135 0.393793C1.23802 0.500433 1.17682 0.631357 1.15484 0.771381C1.06177 1.22418 -0.402113 11.6166 5.09172 17.0774C7.80003 19.7605 11.6994 20.7537 16.6942 20.0216C17.8191 20.8359 18.8627 21.4954 19.7829 22.0804C19.9492 22.1877 20.1511 22.2248 20.3447 22.1836C20.5382 22.1425 20.7076 22.0264 20.816 21.8608ZM6.13467 16.0173C2.25309 12.1793 2.34081 5.16336 2.50282 2.28907C3.93937 2.92229 5.45474 3.35878 7.00793 3.58674C10.2803 4.25175 13.9828 5.00859 15.8575 7.96765C17.29 10.2485 17.5009 13.5643 16.505 18.0511C12.5669 15.216 8.12418 11.3463 6.74538 6.91341C6.67814 6.73422 6.54494 6.58754 6.37308 6.50345C6.20123 6.41936 6.00372 6.40422 5.82106 6.46113C5.63839 6.51804 5.4844 6.6427 5.39064 6.80955C5.29688 6.9764 5.27046 7.17281 5.31679 7.35851C6.73204 11.9436 10.9503 15.8007 14.8618 18.7093C11.1401 18.9576 8.21877 18.0571 6.15006 16.0107L6.13467 16.0173Z" fill="#359740"/>
</svg>
